<svg xmlns="http://www.w3.org/2000/svg">
    <svg>
        <path id="sobre-id"
            d="M14.5 0H1.50001C0.672854 0 0 0.672853 0 1.50001V10.5C0 11.3271 0.672854 12 1.50001 12H14.5C15.3271 12 16 11.3271 16 10.5V1.50001C16 0.672853 15.3271 0 14.5 0ZM14.5 0.999994C14.5679 0.999994 14.6325 1.01409 14.6916 1.0387L8 6.83838L1.30833 1.0387C1.36742 1.01412 1.43204 0.999994 1.49998 0.999994H14.5ZM14.5 11H1.50001C1.22414 11 0.999996 10.7759 0.999996 10.5V2.09521L7.67236 7.87792C7.76661 7.95944 7.8833 7.99999 8 7.99999C8.1167 7.99999 8.23339 7.95948 8.32764 7.87792L15 2.09521V10.5C15 10.7759 14.7759 11 14.5 11Z" />

        <path id="phone-id"
            d="M8.5 0H1.5C0.672848 0 0 0.672848 0 1.5V14.5C0 15.3272 0.672848 16 1.5 16H8.5C9.32715 16 10 15.3272 10 14.5V1.5C10 0.672848 9.32715 0 8.5 0ZM1.5 1H8.5C8.77588 1 9 1.22412 9 1.5V12H1V1.5C1 1.22412 1.22412 1 1.5 1ZM8.5 15H1.5C1.22412 15 1 14.7759 1 14.5V13H9V14.5C9 14.7759 8.77588 15 8.5 15Z" />

        <symbol xmlns="http://www.w3.org/2000/svg" fill="none" viewBox="0 0 70 70" id="antena-1-opt">
            <path fill="#212121"
                d="M67.3163 48.3385 48.8468 29.7337l2.0498-10.0964a4.6548 4.6548 0 0 0 1.659.3185h.014c2.6081.0308 4.7473-2.0584 4.7783-4.6665.0309-2.6081-2.0585-4.7473-4.6666-4.7782-2.6081-.0308-4.7473 2.0584-4.7782 4.6665a4.719 4.719 0 0 0 .2729 1.6387l-10.85 1.3242L19.6276.35A1.1664 1.1664 0 0 0 18.804 0a1.1665 1.1665 0 0 0-.8167.3395l-3.3087 3.29c-.4554.4556-.4554 1.194 0 1.6497l1.7804 1.806C9.5616 19.768 11.8019 35.474 21.9703 45.7228c.0933.0893.2015.1615.3197.2135a6.7707 6.7707 0 0 0-.1144 1.197v13.5334h-14c-3.22.0038-5.8295 2.6133-5.8333 5.8333v2.3333c0 .6443.5224 1.1667 1.1667 1.1667h53.6666c.6443 0 1.1667-.5224 1.1667-1.1667V66.5c-.0038-3.22-2.6133-5.8295-5.8333-5.8333h-14v-5.9979a32.879 32.879 0 0 0 6.6686.7 32.4831 32.4831 0 0 0 15.4-3.9013l1.7897 1.8002c.2171.2215.5135.3475.8237.35a1.1668 1.1668 0 0 0 .8166-.3395l3.3087-3.29c.4554-.4556.4554-1.1941 0-1.6497ZM50.9246 13.6348c.9137-.9088 2.3911-.9047 3.2998.0089.9088.9137.9047 2.3911-.0089 3.2998a2.3335 2.3335 0 0 1-1.646.679h-.007c-1.2886-.0067-2.328-1.0567-2.3213-2.3454a2.3341 2.3341 0 0 1 .6879-1.6423h-.0045Zm-2.7463 7.6662-1.309 6.4435-2.5713-2.5865 3.8803-3.857Zm-1.3253-1.9728-4.2 4.1755-3.2492-3.2667 7.4492-.9088ZM52.509 63c1.933 0 3.5 1.567 3.5 3.5v1.1667H4.6756V66.5c0-1.933 1.567-3.5 3.5-3.5H52.509Zm-16.3334-4.6667v2.3334H24.509v-2.3334h11.6666ZM24.509 56v-8.8667C24.509 44.303 27.1258 42 30.3423 42c3.2165 0 5.8333 2.303 5.8333 5.1333V56H24.509Zm14-3.71v-5.1567c0-4.1171-3.6634-7.4666-8.1667-7.4666a8.3122 8.3122 0 0 0-7.1773 3.9071c-8.8763-9.3489-10.8751-23.2863-4.9845-34.753L58.872 49.7454A30.233 30.233 0 0 1 38.509 52.29Zm24.6948-1.4957L61.56 49.1412 18.7923 6.1157l-1.6508-1.6544 1.6508-1.645L36.15 20.272c.0081 0 .0128.0152.021.021l28.6883 28.8563-1.6555 1.645Z">
            </path>
            <path fill="#2196F3"
                d="M30.3528 44.3333h-.0105c-1.933-.0029-3.5023 1.5617-3.5053 3.4948-.0029 1.933 1.5618 3.5023 3.4948 3.5052h.0105c1.933.0029 3.5023-1.5617 3.5052-3.4947.003-1.9331-1.5617-3.5024-3.4947-3.5053Zm.8167 4.3272a1.1671 1.1671 0 0 1-.8272.3395c-.6443-.0034-1.1639-.5284-1.1606-1.1727a1.1666 1.1666 0 0 1 1.1606-1.1606c.6443.0033 1.1639.5283 1.1605 1.1726a1.1672 1.1672 0 0 1-.3438.8212h.0105Z">
            </path>
        </symbol>

        <symbol xmlns="http://www.w3.org/2000/svg" fill="none" viewBox="0 0 76 78" id="reloj-1-opt">
            <g clip-path="url(#a)" filter="url(#b)">
                <path fill="#212121"
                    d="M71.461 33.471C71.458 14.982 56.466-.004 37.975 0 19.485.004 4.5 14.996 4.504 33.486A33.479 33.479 0 0 0 27.799 65.37c.133.042.27.063.41.063.263 0 .521-.071.748-.205.296-.175.516-.453.62-.78l8.454-26.797a4.184 4.184 0 1 0-1.837-7.95L25.025 18.53a1.395 1.395 0 0 0-1.972 1.973l11.163 11.176a4.104 4.104 0 0 0 1.173 5.051l-8.055 25.535C11.414 56.4 3.262 38.74 9.126 22.82 14.991 6.9 32.65-1.252 48.571 4.613c15.92 5.864 24.072 23.524 18.207 39.444A30.72 30.72 0 0 1 50.455 61.5l-.87-4.1a1.394 1.394 0 0 0-2.294-.752l-8.393 7.494a1.394 1.394 0 0 0 .505 2.372l10.716 3.42a1.394 1.394 0 0 0 1.791-1.619l-.855-4.022a33.37 33.37 0 0 0 20.406-30.82Zm-33.478-1.394a1.395 1.395 0 1 1 0 2.79 1.395 1.395 0 0 1 0-2.79Zm4.594 32.515 4.778-4.262 1.319 6.213-6.097-1.951Z">
                </path>
                <path fill="#2196F3"
                    d="M36.588 6.967v2.79a1.395 1.395 0 1 0 2.79 0v-2.79a1.395 1.395 0 0 0-2.79 0ZM11.479 32.077a1.395 1.395 0 0 0 0 2.79h2.79a1.395 1.395 0 1 0 0-2.79h-2.79ZM64.487 34.867a1.395 1.395 0 1 0 0-2.79h-2.79a1.395 1.395 0 0 0 0 2.79h2.79Z">
                </path>
            </g>
            <defs>
                <clipPath id="a">
                    <path fill="#fff" d="M3 0h70v70H3z"></path>
                </clipPath>
                <filter id="b" width="78" height="78" x="-1" y="0" color-interpolation-filters="sRGB"
                    filterUnits="userSpaceOnUse">
                    <feFlood flood-opacity="0" result="BackgroundImageFix"></feFlood>
                    <feColorMatrix in="SourceAlpha" result="hardAlpha"
                        values="0 0 0 0 0 0 0 0 0 0 0 0 0 0 0 0 0 0 127 0">
                    </feColorMatrix>
                    <feOffset dy="4"></feOffset>
                    <feGaussianBlur stdDeviation="2"></feGaussianBlur>
                    <feComposite in2="hardAlpha" operator="out"></feComposite>
                    <feColorMatrix values="0 0 0 0 0 0 0 0 0 0 0 0 0 0 0 0 0 0 0.25 0"></feColorMatrix>
                    <feBlend in2="BackgroundImageFix" result="effect1_dropShadow_75273_446"></feBlend>
                    <feBlend in="SourceGraphic" in2="effect1_dropShadow_75273_446" result="shape"></feBlend>
                </filter>
            </defs>
        </symbol>
        
        <symbol fill="none" xmlns="http://www.w3.org/2000/svg" viewBox="0 0 70 70" id="diagrama-pc">
            <g id="diagrama 1" clip-path="url(#clip0_75273_456)">
                <path id="Vector" d="M32.6496 32.7351H34.9817V43.2296H32.6496V32.7351Z" fill="#2196F3"></path>
                <path id="Vector_2" d="M41.978 37.3993H44.3101V43.2296H41.978V37.3993Z" fill="#2196F3"></path>
                <path id="Vector_3" d="M23.3211 40.8975H25.6532V43.2296H23.3211V40.8975Z" fill="#2196F3"></path>
                <path id="Vector_4" d="M16.3248 39.7314H18.6569V43.2295H16.3248V39.7314Z" fill="#2196F3"></path>
                <path id="Vector_5"
                    d="M3.49817 61.8865H59.4689C61.4007 61.8865 62.967 60.3202 62.967 58.3883V53.7241C62.967 51.7923 61.4007 50.2259 59.4689 50.2259H58.3028V21.1469L64.9262 14.8725C66.4635 15.6303 68.3242 15.1702 69.3302 13.7816C70.3369 12.3935 70.1957 10.4821 68.9966 9.25684C67.7975 8.03157 65.8901 7.8488 64.4798 8.82412C63.0701 9.80001 62.569 11.6499 63.2933 13.2037L58.3028 17.9345V15.2443C58.3028 13.3124 56.7365 11.7461 54.8046 11.7461H8.16239C6.23054 11.7461 4.66422 13.3124 4.66422 15.2443V50.2259H3.49817C1.56632 50.2259 0 51.7923 0 53.7241V58.3883C0 60.3202 1.56632 61.8865 3.49817 61.8865ZM66.4652 10.58C67.1091 10.58 67.6313 11.1021 67.6313 11.7461C67.6313 12.39 67.1091 12.9121 66.4652 12.9121C65.8212 12.9121 65.2991 12.39 65.2991 11.7461C65.2991 11.1021 65.8212 10.58 66.4652 10.58ZM6.99634 15.2443C6.99634 14.6003 7.51844 14.0782 8.16239 14.0782H54.8046C55.4486 14.0782 55.9707 14.6003 55.9707 15.2443V20.1414L53.6386 22.3573V17.5764C53.6386 16.9324 53.1165 16.4103 52.4725 16.4103H10.4945C9.85055 16.4103 9.32845 16.9324 9.32845 17.5764V46.7278C9.32845 47.3717 9.85055 47.8938 10.4945 47.8938H52.4725C53.1165 47.8938 53.6386 47.3717 53.6386 46.7278V25.5651L55.9707 23.3554V50.2259H6.99634V15.2443ZM17.4908 30.403C15.9131 30.3984 14.5279 31.4495 14.1083 32.9703C13.6886 34.491 14.3383 36.104 15.6951 36.9091C17.0513 37.7142 18.7793 37.5121 19.9129 36.4149L23.9662 38.4487C24.4371 38.6844 25.0081 38.5739 25.3583 38.1805L33.9745 28.4871L42.4443 34.8338C42.8987 35.1743 43.5329 35.1378 43.9452 34.7478L51.3065 27.7748V45.5617H11.6606V18.7424H51.3065V24.5619L43.0564 32.3747L34.5154 25.9716C34.0303 25.6084 33.3476 25.6767 32.9445 26.1294L24.2099 35.9571L20.9446 34.3242C20.9685 34.1841 20.9833 34.0429 20.989 33.9012C20.989 31.9693 19.4227 30.403 17.4908 30.403ZM18.6569 33.9012C18.6569 34.5451 18.1348 35.0672 17.4908 35.0672C16.8469 35.0672 16.3248 34.5451 16.3248 33.9012C16.3248 33.2572 16.8469 32.7351 17.4908 32.7351C18.1348 32.7351 18.6569 33.2572 18.6569 33.9012ZM25.6532 52.5581H37.3138V53.7241C37.3138 54.3681 36.7917 54.8902 36.1477 54.8902H26.8193C26.1753 54.8902 25.6532 54.3681 25.6532 53.7241V52.5581ZM2.33211 53.7241C2.33211 53.0802 2.85422 52.5581 3.49817 52.5581H23.3211V53.7241C23.3211 55.656 24.8874 57.2223 26.8193 57.2223H36.1477C38.0796 57.2223 39.6459 55.656 39.6459 53.7241V52.5581H59.4689C60.1128 52.5581 60.6349 53.0802 60.6349 53.7241V58.3883C60.6349 59.0323 60.1128 59.5544 59.4689 59.5544H3.49817C2.85422 59.5544 2.33211 59.0323 2.33211 58.3883V53.7241Z"
                    fill="#212121"></path>
            </g>
            <defs>
                <clipPath id="clip0_75273_456">
                    <rect width="70" height="70" fill="white"></rect>
                </clipPath>
            </defs>
        </symbol>

        <symbol fill="none" xmlns="http://www.w3.org/2000/svg" viewBox="0 0 70 80" id="astronauta1-new">
            <g id="astronauta 1">
                <g id="Grupo">
                    <g id="Grupo_2">
                        <path id="Vector"
                            d="M69.9433 9.89637C69.8056 9.47513 69.4416 9.16724 69.0018 9.10298L64.8228 8.49512L62.9526 4.70809C62.5606 3.91005 61.2527 3.91005 60.8608 4.70809L58.9906 8.49512L54.8114 9.10312C54.3716 9.16724 54.0076 9.47418 53.8687 9.89651C53.7323 10.3188 53.8453 10.7831 54.1639 11.0924L57.1891 14.0407L56.4752 18.2034C56.4005 18.6409 56.5802 19.0831 56.9384 19.3445C57.3012 19.6082 57.7748 19.6407 58.168 19.4331L61.9061 17.4672L65.6442 19.4331C65.8146 19.5229 66.0024 19.5672 66.1879 19.5672C66.4294 19.5672 66.671 19.4925 66.874 19.3443C67.2333 19.0831 67.413 18.6408 67.3372 18.2033L66.6233 14.0405L69.6485 11.0923C69.9654 10.7819 70.0798 10.3187 69.9433 9.89637ZM64.5556 12.7991C64.2815 13.0662 64.1555 13.4536 64.2208 13.8316L64.6385 16.2688L62.4499 15.1184C62.2795 15.0286 62.0929 14.9843 61.9061 14.9843C61.7195 14.9843 61.534 15.0286 61.3624 15.1184L59.1736 16.2688L59.5913 13.8316C59.6567 13.4536 59.5306 13.0675 59.2565 12.7991L57.4843 11.0724L59.932 10.7166C60.3124 10.6617 60.6402 10.4226 60.8106 10.0783L61.9049 7.86169L62.9992 10.0783C63.1696 10.4225 63.4974 10.6617 63.8778 10.7166L66.3255 11.0724L64.5556 12.7991Z"
                            fill="#2196F3"></path>
                    </g>
                </g>
                <g id="Grupo_3">
                    <g id="Grupo_4">
                        <path id="Vector_2" d="M57.167 44.8923H54.8336V47.2257H57.167V44.8923Z" fill="#2196F3"></path>
                    </g>
                </g>
                <g id="Grupo_5">
                    <g id="Grupo_6">
                        <path id="Vector_3" d="M57.167 49.5591H54.8336V51.8925H57.167V49.5591Z" fill="#2196F3"></path>
                    </g>
                </g>
                <g id="Grupo_7">
                    <g id="Grupo_8">
                        <path id="Vector_4" d="M59.5004 47.2257H57.167V49.5591H59.5004V47.2257Z" fill="#2196F3"></path>
                    </g>
                </g>
                <g id="Grupo_9">
                    <g id="Grupo_10">
                        <path id="Vector_5" d="M54.8337 47.2257H52.5003V49.5591H54.8337V47.2257Z" fill="#2196F3"></path>
                    </g>
                </g>
                <g id="Grupo_11">
                    <g id="Grupo_12">
                        <path id="Vector_6" d="M49.0002 57.7259H46.6668V60.0593H49.0002V57.7259Z" fill="#2196F3"></path>
                    </g>
                </g>
                <g id="Grupo_13">
                    <g id="Grupo_14">
                        <path id="Vector_7" d="M49.0002 62.3926H46.6668V64.726H49.0002V62.3926Z" fill="#2196F3"></path>
                    </g>
                </g>
                <g id="Grupo_15">
                    <g id="Grupo_16">
                        <path id="Vector_8" d="M51.3337 60.0593H49.0002V62.3927H51.3337V60.0593Z" fill="#2196F3"></path>
                    </g>
                </g>
                <g id="Grupo_17">
                    <g id="Grupo_18">
                        <path id="Vector_9" d="M46.6668 60.0593H44.3334V62.3927H46.6668V60.0593Z" fill="#2196F3"></path>
                    </g>
                </g>
                <g id="Grupo_19">
                    <g id="Grupo_20">
                        <path id="Vector_10" d="M35 53.0592H32.6666V55.3926H35V53.0592Z" fill="#2196F3"></path>
                    </g>
                </g>
                <g id="Grupo_21">
                    <g id="Grupo_22">
                        <path id="Vector_11" d="M35 57.7259H32.6666V60.0593H35V57.7259Z" fill="#2196F3"></path>
                    </g>
                </g>
                <g id="Grupo_23">
                    <g id="Grupo_24">
                        <path id="Vector_12" d="M37.3334 55.3925H35V57.7259H37.3334V55.3925Z" fill="#2196F3"></path>
                    </g>
                </g>
                <g id="Grupo_25">
                    <g id="Grupo_26">
                        <path id="Vector_13" d="M32.6666 55.3925H30.3332V57.7259H32.6666V55.3925Z" fill="#2196F3">
                        </path>
                    </g>
                </g>
                <g id="Grupo_27">
                    <g id="Grupo_28">
                        <path id="Vector_14" d="M12.833 13.3918H10.4996V15.7252H12.833V13.3918Z" fill="#2196F3"></path>
                    </g>
                </g>
                <g id="Grupo_29">
                    <g id="Grupo_30">
                        <path id="Vector_15" d="M12.833 18.0587H10.4996V20.3921H12.833V18.0587Z" fill="#2196F3"></path>
                    </g>
                </g>
                <g id="Grupo_31">
                    <g id="Grupo_32">
                        <path id="Vector_16" d="M15.1663 15.7252H12.8329V18.0586H15.1663V15.7252Z" fill="#2196F3">
                        </path>
                    </g>
                </g>
                <g id="Grupo_33">
                    <g id="Grupo_34">
                        <path id="Vector_17" d="M10.4996 15.7252H8.1662V18.0586H10.4996V15.7252Z" fill="#2196F3"></path>
                    </g>
                </g>
                <g id="Grupo_35">
                    <g id="Grupo_36">
                        <path id="Vector_18"
                            d="M54.0635 30.9738C53.4347 30.1256 52.5119 29.5797 51.4642 29.4326C50.4118 29.2833 49.3734 29.5597 48.5334 30.2026L45.7952 32.3014L45.794 32.3026L41.6428 35.4025L38.6724 34.2194C43.9691 31.8429 47.6711 26.545 47.6711 20.3942C47.6711 12.0314 40.8401 5.22736 32.4436 5.22736C24.047 5.22736 17.2161 12.0314 17.2161 20.3942C17.2161 23.4253 18.1226 26.2439 19.6662 28.6158L13.6204 28.5633C13.6168 28.5633 13.6134 28.5633 13.6099 28.5633C13.5911 28.5633 13.5761 28.5726 13.5586 28.5738C13.4431 28.5785 13.3298 28.6018 13.2191 28.6415C13.1911 28.652 13.162 28.6579 13.1352 28.6706C13.1212 28.6765 13.1071 28.6776 13.0932 28.6846L6.02075 32.1764C6.01952 32.1764 6.01843 32.1764 6.01843 32.1775L1.8766 34.1693C1.83107 34.1891 1.78445 34.2159 1.73892 34.2462C0.0880191 35.3452 -0.474314 37.5036 0.429958 39.2676C0.911763 40.2056 1.73195 40.8963 2.73999 41.2124C3.12856 41.3337 3.52518 41.3933 3.91949 41.3933C4.55305 41.3933 5.18074 41.2381 5.75578 40.9313L8.79154 39.3167L13.7441 36.7593L16.7122 36.7418L4.80844 48.5884C4.80735 48.5896 4.80612 48.5896 4.80489 48.5907L1.87647 51.5074C1.18466 52.1958 0.8043 53.1092 0.8043 54.0835C0.8043 55.0565 1.18466 55.9723 1.87647 56.6619C2.587 57.3689 3.52149 57.7235 4.45598 57.7235C5.3917 57.7235 6.32495 57.3689 7.03782 56.6619L9.91251 53.7988L13.7206 50.9556L15.6912 52.9179L11.8375 56.7551C11.8364 56.7564 11.8352 56.7564 11.834 56.7575L8.90556 59.6741C8.21375 60.3625 7.8334 61.2759 7.8334 62.2502C7.8334 63.2233 8.21375 64.139 8.90556 64.8286C9.6161 65.5356 10.5518 65.8903 11.4863 65.8903C12.4208 65.8903 13.3565 65.5356 14.0681 64.8286L16.9977 61.912L21.6842 57.2453C21.6854 57.244 21.6854 57.2429 21.6865 57.2417L23.8951 55.0542L23.8869 55.046C23.9008 55.032 23.9207 55.0272 23.9347 55.0122L35.2353 42.6349L42.8281 43.7152C42.8829 43.7234 42.9377 43.7269 42.9925 43.7269C43.1338 43.7269 43.2702 43.6931 43.402 43.6429C43.4406 43.629 43.4743 43.6102 43.5106 43.5916C43.5526 43.5706 43.5968 43.559 43.6366 43.5322L50.6659 38.8655C50.6916 38.848 50.7055 38.8199 50.73 38.8013C50.758 38.7792 50.793 38.7699 50.8186 38.7453L53.5999 36.1401C55.0471 34.7841 55.2466 32.5628 54.0635 30.9738ZM4.66024 38.8722C4.28111 39.0752 3.85058 39.1159 3.43878 38.9854C3.03039 38.8582 2.69912 38.5793 2.50538 38.2025C2.15305 37.5164 2.35718 36.6811 2.97433 36.2296L5.84793 34.8471L6.53974 36.8689L6.83027 37.7182L4.66024 38.8722ZM12.3102 34.874L8.92333 36.6241L8.36456 34.9907L7.96328 33.8169L12.3967 31.6282L12.3102 34.874ZM45.3402 20.3919C45.3402 22.4009 44.8607 24.2957 44.03 25.9907L34.8832 21.8362C34.7875 20.5821 34.1366 19.4842 33.1589 18.8005L36.3614 8.16849C41.5626 9.82295 45.3402 14.6752 45.3402 20.3919ZM19.5519 20.3919C19.5519 13.3159 25.3363 7.55831 32.446 7.55831C32.9991 7.55831 33.5403 7.60493 34.0759 7.67261L30.9433 18.0713C30.9014 18.0701 30.8617 18.0585 30.8185 18.0585C28.5597 18.0585 26.7222 19.8901 26.7222 22.1419C26.7222 24.3936 28.5597 26.2254 30.8185 26.2254C32.3375 26.2254 33.65 25.3866 34.3582 24.1591L42.8073 27.9975C40.4564 31.1615 36.6938 33.2255 32.4459 33.2255C25.3363 33.2255 19.5519 27.4679 19.5519 20.3919ZM32.5814 22.1419C32.5814 23.1068 31.7903 23.8919 30.8185 23.8919C29.8467 23.8919 29.0556 23.1068 29.0556 22.1419C29.0556 21.1771 29.8467 20.3919 30.8185 20.3919C31.7903 20.3919 32.5814 21.1771 32.5814 22.1419ZM5.39183 55.0074C4.87503 55.5196 4.03843 55.5185 3.52286 55.0087C3.2743 54.7601 3.13785 54.4324 3.13785 54.0835C3.13785 53.7358 3.2743 53.4079 3.52286 53.1618L5.6274 51.0652L7.48941 52.9191L5.39183 55.0074ZM12.4222 63.1743C11.9054 63.6865 11.0677 63.6877 10.552 63.1755C10.3034 62.927 10.1669 62.5993 10.1669 62.2503C10.1669 61.9027 10.3034 61.5748 10.552 61.3287L12.6579 59.231L13.5388 60.1073L14.5211 61.0849L12.4222 63.1743ZM20.0383 55.5862C20.0371 55.5873 20.036 55.5873 20.0348 55.5885L16.1742 59.4385L15.2933 58.5623L14.311 57.5846L18.168 53.7451C18.168 53.7451 18.168 53.7451 18.168 53.744C18.1692 53.7428 18.1703 53.7428 18.1715 53.7417C18.259 53.6542 18.3139 53.5492 18.3676 53.4454C18.3828 53.415 18.4119 53.3893 18.4248 53.3579C18.461 53.2681 18.4667 53.1713 18.4808 53.0767C18.4878 53.0229 18.5112 52.9729 18.5112 52.9179C18.5112 52.8397 18.4831 52.764 18.4669 52.6869C18.4529 52.6169 18.4529 52.5456 18.426 52.4781C18.3817 52.3684 18.3058 52.2716 18.2265 52.177C18.2044 52.1513 18.1962 52.1186 18.1717 52.0942C18.1717 52.0942 18.1717 52.0942 18.1705 52.0942C18.1692 52.0931 18.1692 52.0906 18.1681 52.0895L14.6529 48.5895C14.6156 48.5521 14.5677 48.537 14.5257 48.5055C14.464 48.4577 14.4045 48.4134 14.3356 48.3795C14.2691 48.3468 14.2014 48.327 14.1314 48.3082C14.0568 48.2872 13.9845 48.2709 13.9063 48.265C13.835 48.2604 13.7686 48.2674 13.6975 48.2756C13.6193 48.2849 13.5459 48.2954 13.47 48.3199C13.3964 48.3432 13.3312 48.3793 13.2635 48.4179C13.2203 48.4424 13.1714 48.4506 13.1305 48.4809L9.25133 51.3767L7.28077 49.4143L12.5285 44.1946L22.0674 53.576L20.0383 55.5862ZM34.9544 40.2372C34.9207 40.2325 34.8891 40.2454 34.8553 40.2431C34.7701 40.2384 34.6885 40.2443 34.6034 40.2582C34.5369 40.2699 34.4739 40.2827 34.4108 40.3049C34.3362 40.3306 34.2685 40.3656 34.1996 40.4075C34.1343 40.4472 34.0748 40.4892 34.0176 40.5417C33.9896 40.5661 33.9558 40.5779 33.9301 40.6058L23.6527 51.862L14.185 42.5506L20.3825 36.3859C20.8387 35.9309 20.841 35.1923 20.386 34.735C20.1562 34.5052 19.854 34.392 19.5519 34.3932V34.3921L14.6984 34.4212L14.7591 30.9049L21.5492 30.9633C24.3166 33.7937 28.176 35.5589 32.446 35.5589C33.4027 35.5589 34.3361 35.4598 35.2448 35.2905C35.3323 35.3605 35.4186 35.4317 35.5284 35.476L40.7995 37.5761L41.1331 39.235L41.5228 41.1717L34.9544 40.2372ZM43.7944 40.6269L43.1096 37.2189L46.2736 34.8564L47.102 35.9554L48.3445 37.605L43.7944 40.6269ZM52.0055 34.4341L50.1726 36.1514L48.1356 33.4471L49.9544 32.0529C50.2938 31.7917 50.7221 31.6854 51.1421 31.7403C51.5644 31.7997 51.9378 32.0203 52.1921 32.3621C52.6658 33.0003 52.5853 33.8905 52.0055 34.4341Z"
                            fill="#212121"></path>
                    </g>
                </g>
                <g id="Grupo_37">
                    <g id="Grupo_38">
                        <path id="Vector_19"
                            d="M29.7545 40.5651L25.0668 35.8984C24.613 35.4446 23.8755 35.4446 23.4205 35.8984L18.734 40.5651C18.5147 40.7856 18.391 41.0819 18.391 41.3922C18.391 41.7026 18.5135 42.0001 18.734 42.2194L23.4205 46.8861C23.648 47.1124 23.9468 47.2256 24.2443 47.2256C24.5418 47.2256 24.8404 47.1124 25.0668 46.8861L29.7545 42.2194C29.9738 42.0001 30.0987 41.7026 30.0987 41.3922C30.0987 41.0819 29.9749 40.7844 29.7545 40.5651ZM24.2443 44.4128L21.2109 41.3922L24.2443 38.3717L27.2788 41.3922L24.2443 44.4128Z"
                            fill="#212121"></path>
                    </g>
                </g>
                <g id="Grupo_39">
                    <g id="Grupo_40">
                        <path id="Vector_20"
                            d="M37.5468 11.0923L36.9833 13.358C37.1385 13.3966 40.7844 14.3462 40.7844 18.0586H43.1178C43.1177 13.6461 39.4742 11.5718 37.5468 11.0923Z"
                            fill="#212121"></path>
                    </g>
                </g>
                <g id="Grupo_41">
                    <g id="Grupo_42">
                        <path id="Vector_21" d="M43.1178 20.3919H40.7844V22.7253H43.1178V20.3919Z" fill="#212121">
                        </path>
                    </g>
                </g>
            </g>
        </symbol>

        <symbol version="1.1" xmlns="http://www.w3.org/2000/svg" width="30" height="30" viewBox="0 0 32 32"
            id="instagram-1">
            <title>instagram-1</title>
            <path
                d="M31.968 9.408c-0.024-1.403-0.292-2.735-0.763-3.968l0.027 0.080c-0.427-1.109-1.058-2.054-1.854-2.83l-0.002-0.002c-0.8-0.8-1.76-1.44-2.832-1.84-1.151-0.448-2.483-0.721-3.875-0.752l-0.013-0c-1.458-0.070-3.167-0.109-4.885-0.109-0.6 0-1.199 0.005-1.797 0.014l0.090-0.001c-4.352 0-4.896 0.016-6.592 0.096-1.712 0.064-2.88 0.352-3.888 0.736-1.072 0.416-2.032 1.040-2.832 1.856-0.816 0.8-1.44 1.76-1.856 2.832-0.443 1.152-0.711 2.485-0.736 3.877l-0 0.011c-0.070 1.458-0.109 3.167-0.109 4.885 0 0.6 0.005 1.199 0.014 1.797l-0.001-0.090c0 4.352 0 4.896 0.080 6.592 0.030 1.405 0.303 2.737 0.779 3.968l-0.027-0.080c0.4 1.072 1.040 2.032 1.856 2.832 0.8 0.816 1.76 1.44 2.832 1.856 1.008 0.384 2.176 0.656 3.872 0.736 1.712 0.080 2.24 0.096 6.592 0.096s4.896-0.016 6.608-0.096c1.397-0.026 2.724-0.294 3.952-0.763l-0.080 0.027c2.16-0.851 3.837-2.528 4.669-4.633l0.019-0.055c0.384-1.024 0.672-2.176 0.736-3.888 0.080-1.696 0.096-2.24 0.096-6.592 0-4.336 0-4.88-0.080-6.592zM29.088 22.48c-0.064 1.552-0.32 2.4-0.544 2.96-0.552 1.401-1.639 2.488-3.004 3.027l-0.036 0.013c-0.56 0.224-1.424 0.48-2.976 0.544-1.68 0.080-2.192 0.096-6.464 0.096-0.465 0.007-1.013 0.011-1.562 0.011-1.724 0-3.439-0.039-5.144-0.116l0.242 0.009c-1.568-0.064-2.4-0.32-2.96-0.544-0.722-0.271-1.337-0.68-1.839-1.199l-0.001-0.001c-0.518-0.5-0.926-1.108-1.189-1.79l-0.011-0.034c-0.336-0.884-0.535-1.905-0.544-2.972l-0-0.004c-0.068-1.463-0.107-3.179-0.107-4.903 0-0.549 0.004-1.097 0.012-1.643l-0.001 0.083c0-4.272 0.016-4.784 0.096-6.464 0.064-1.568 0.32-2.4 0.544-2.976 0.256-0.688 0.656-1.312 1.2-1.824 0.504-0.519 1.118-0.928 1.806-1.189l0.034-0.011c0.56-0.224 1.408-0.48 2.976-0.544 1.68-0.080 2.192-0.096 6.448-0.096 4.288 0 4.8 0 6.464 0.096 1.568 0.064 2.4 0.32 2.976 0.544 0.688 0.256 1.328 0.656 1.84 1.2 0.528 0.512 0.944 1.136 1.2 1.824 0.208 0.576 0.48 1.424 0.544 2.976 0.080 1.68 0.096 2.192 0.096 6.464s-0.016 4.768-0.096 6.464z">
            </path>
            <path
                d="M16.064 7.776c-4.542 0-8.224 3.682-8.224 8.224s3.682 8.224 8.224 8.224v0c4.542 0 8.224-3.682 8.224-8.224s-3.682-8.224-8.224-8.224v0zM16.064 21.328c-2.943 0-5.328-2.385-5.328-5.328s2.385-5.328 5.328-5.328v0c2.943 0 5.328 2.385 5.328 5.328s-2.385 5.328-5.328 5.328v0zM26.528 7.456c0 1.060-0.86 1.92-1.92 1.92s-1.92-0.86-1.92-1.92v0c0-1.060 0.86-1.92 1.92-1.92s1.92 0.86 1.92 1.92v0z">
            </path>
        </symbol>

        <symbol version="1.1" xmlns="http://www.w3.org/2000/svg" viewBox="0 0 32 32" id="twitter-1">
            <title>twitter-1</title>
            <path
                d="M32 6.080c-1.184 0.528-2.464 0.864-3.776 1.040 1.36-0.816 2.4-2.080 2.88-3.632-1.28 0.752-2.672 1.28-4.16 1.6-1.202-1.298-2.915-2.107-4.817-2.107-3.623 0-6.56 2.937-6.56 6.56 0 0.538 0.065 1.060 0.187 1.56l-0.009-0.045c-5.462-0.281-10.265-2.883-13.477-6.83l-0.027-0.034c-0.558 0.949-0.887 2.089-0.887 3.307 0 2.26 1.134 4.255 2.865 5.446l0.022 0.014c-1.040 0-2.080-0.32-2.96-0.8v0.064c0 3.2 2.272 5.84 5.264 6.448-0.518 0.147-1.113 0.232-1.728 0.232-0.442 0-0.873-0.044-1.29-0.127l0.042 0.007c0.878 2.623 3.284 4.493 6.136 4.56l0.008 0c-2.221 1.763-5.066 2.828-8.159 2.828-0.547 0-1.087-0.033-1.617-0.098l0.064 0.006c2.826 1.846 6.286 2.944 10.003 2.944 0.022 0 0.043-0 0.065-0h-0.003c12.080 0 18.672-10 18.672-18.672 0-0.288 0-0.576-0.032-0.848 1.312-0.928 2.4-2.080 3.296-3.408z">
            </path>
        </symbol>

        <symbol version="1.1" xmlns="http://www.w3.org/2000/svg" viewBox="0 0 32 32" id="facebook-1">
            <title>facebook-1</title>
            <path
                d="M21.328 5.312h2.928v-5.088c-0.512-0.064-2.24-0.224-4.256-0.224-4.224 0-7.104 2.656-7.104 7.52v4.48h-4.64v5.68h4.64v14.32h5.696v-14.304h4.464l0.704-5.696h-5.168v-3.92c0-1.648 0.448-2.768 2.736-2.768z">
            </path>
        </symbol>

        <symbol versin="1.1" xmlns="http://www.w3.org/2000/svg" width="30" height="30" viewBox="0 0 35 32"
            id="linkedin-1">
            <title>linkedin-1</title>
            <path
                d="M32 32v-11.744c0-5.728-1.232-10.16-7.952-10.16-0.076-0.003-0.166-0.005-0.256-0.005-2.555 0-4.788 1.376-5.999 3.428l-0.018 0.032h-0.096v-2.912h-6.368v21.36h6.64v-10.576c0-2.784 0.528-5.488 3.968-5.488 3.408 0 3.456 3.184 3.456 5.664v10.4h6.624zM0.528 10.64h6.64v21.36h-6.64v-21.36zM3.84 0c-2.121 0-3.84 1.719-3.84 3.84v0c-0 0.005-0 0.010-0 0.016 0 2.127 1.715 3.854 3.838 3.872h0.002c2.128 0 3.84-1.76 3.84-3.888 0-2.121-1.719-3.84-3.84-3.84v0z">
            </path>
        </symbol>

        <symbol version="1.1" xmlns="http://www.w3.org/2000/svg" viewBox="0 0 64 40" id="Logo-1-square">
            <title>Logo-1-square</title>
            <path
                d="M22.943 4.226l4.226 4.045h-7.849v19.502h20.528v-7.487l4.226 3.985v-19.985h-21.132zM39.668 19.804l-12.015-11.351h12.015v11.351zM35.925 24.875h-13.343v-13.102h0.906v12.196h12.438v0.906zM25.721 30.309l-0.483 1.026-0.483-1.026h-0.423l0.725 1.328v0.785h0.362v-0.785l0.725-1.328h-0.423zM26.325 32.423l0.181-0.483h0.845l0.181 0.483h0.362l-0.725-2.113h-0.362l-0.845 2.113h0.362zM26.928 30.732l0.302 0.906h-0.604l0.302-0.906zM28.921 31.577l-0.121 0.302c0 0.181 0.060 0.302 0.241 0.423 0.121 0.121 0.241 0.181 0.483 0.181l0.543-0.181 0.121 0.121h0.423l-0.302-0.362c0.121-0.181 0.181-0.362 0.181-0.604h-0.302c0 0.121 0 0.241-0.121 0.362l-0.423-0.483 0.181-0.121c0.060-0.060 0.181-0.121 0.181-0.241 0.049-0.075 0.079-0.166 0.079-0.265 0-0.132-0.053-0.252-0.139-0.339l0 0c-0.093-0.075-0.212-0.121-0.342-0.121-0.007 0-0.014 0-0.021 0l0.001-0c-0.166 0.002-0.315 0.071-0.423 0.181l-0 0c-0.121 0.060-0.181 0.241-0.181 0.362l0.060 0.241 0.181 0.241c-0.119 0.083-0.219 0.183-0.299 0.298l-0.003 0.004zM29.887 32.060c-0.1 0.075-0.226 0.121-0.362 0.121v0l-0.241-0.060c-0.074-0.056-0.121-0.143-0.121-0.241v0c0-0.121 0.060-0.241 0.181-0.302l0.060-0.060 0.483 0.604zM29.464 31.094l-0.121-0.302v-0.181h0.423l0.060 0.181-0.060 0.181-0.241 0.121zM32.966 32.302c0.181-0.121 0.242-0.302 0.242-0.604h-0.362c0 0.181 0 0.302-0.121 0.362l-0.362 0.121c-0.005 0-0.010 0-0.015 0-0.143 0-0.27-0.071-0.346-0.18l-0.001-0.001-0.121-0.543v-0.181c0-0.241 0.060-0.423 0.181-0.543 0.060-0.121 0.181-0.181 0.362-0.181 0.121 0 0.242 0 0.302 0.121l0.121 0.362h0.362c0-0.241-0.060-0.423-0.242-0.604-0.121-0.121-0.302-0.181-0.604-0.181l-0.423 0.121-0.302 0.362c-0.078 0.155-0.123 0.338-0.123 0.531 0 0.026 0.001 0.051 0.002 0.076l-0-0.003v0.181c0 0.181 0 0.362 0.121 0.483 0.060 0.181 0.181 0.302 0.302 0.362l0.423 0.121c0.302 0 0.483-0.060 0.604-0.181zM35.2 32l0.060-0.604c0-0.241 0-0.423-0.121-0.604-0.133-0.277-0.405-0.468-0.723-0.483l-0.002-0-0.483 0.121-0.302 0.423c-0.121 0.121-0.121 0.302-0.121 0.543v0.121c0 0.181 0 0.362 0.121 0.543 0 0.121 0.181 0.242 0.302 0.362l0.483 0.121c0.181 0 0.302 0 0.423-0.121l0.362-0.362zM34.777 30.792l0.121 0.543v0.121c0 0.241 0 0.423-0.121 0.543l-0.362 0.181c-0.022 0.004-0.046 0.006-0.072 0.006-0.146 0-0.274-0.074-0.35-0.186l-0.001-0.001-0.121-0.604c0-0.241 0-0.423 0.121-0.604 0.121-0.060 0.242-0.181 0.423-0.181 0.121 0 0.242 0.121 0.362 0.241z">
            </path>
        </symbol>

        <symbol version="1.1" xmlns="http://www.w3.org/2000/svg" viewBox="0 0 64 42" id="Logo-2">
            <title>Logo-2</title>
            <path
                d="M30.249 3.623h-0.664c-0.117-0.003-0.254-0.005-0.392-0.005s-0.276 0.002-0.413 0.006l0.020-0c-2.174 0.121-4.347 0.664-6.34 1.63l-0.302 0.121v13.404l0.604-0.241c1.973-0.67 4.248-1.085 6.611-1.147l0.030-0.001v1.811h-0.664c-3.052 0.155-5.878 0.986-8.374 2.346l0.103-0.051v-17.147c2.592-1.55 5.716-2.469 9.055-2.475h0.304c1.129 0.029 2.209 0.16 3.255 0.383l-0.116-0.021v1.751c-0.725-0.181-1.449-0.241-2.174-0.302h-0.604zM33.268 5.434h1.208c3.346-0.009 6.487-0.881 9.213-2.404l-0.096 0.049v16.906c-2.573 1.504-5.664 2.392-8.963 2.392-1.229 0-2.43-0.123-3.59-0.358l0.115 0.020v-16.906c0.639 0.129 1.387 0.216 2.151 0.241l0.022 0.001zM41.842 5.555l-0.604 0.181-1.691 0.483c-1.524 0.401-3.274 0.632-5.077 0.632-0.38 0-0.758-0.010-1.134-0.030l0.052 0.002h-0.483v13.766h0.362l1.208 0.060c0.027 0 0.060 0 0.092 0 2.581 0 5.021-0.602 7.187-1.673l-0.095 0.042 0.242-0.121v-13.343z">
            </path>
            <path
                d="M21.555 27.351c-0.151-0.169-0.362-0.282-0.6-0.302l-0.003-0c-0.181 0-0.302 0-0.423 0.121-0.121 0-0.241 0.121-0.302 0.181l-0.241 0.302v2.657c-0.060 0.181 0 0.362 0 0.483l0.241 0.302 0.362 0.181h0.664c0.357-0.147 0.604-0.493 0.604-0.896 0-0.004-0-0.007-0-0.011v0.001-0.302h-0.604v0.423l-0.121 0.121-0.121 0.060h-0.121c-0.030 0.011-0.064 0.017-0.1 0.017-0.078 0-0.149-0.029-0.202-0.078l0 0-0.060-0.302v-2.174l0.060-0.302c0.048-0.108 0.154-0.182 0.277-0.182 0.009 0 0.017 0 0.026 0.001l-0.001-0c0.098 0 0.186 0.047 0.241 0.12l0.001 0.001c0.121 0.121 0.121 0.241 0.121 0.362v0.181h0.604v-0.241c-0.007-0.282-0.121-0.536-0.302-0.725l0 0zM25.117 27.351c-0.192-0.175-0.449-0.282-0.731-0.282-0.105 0-0.207 0.015-0.303 0.043l0.008-0.002-0.302 0.241-0.241 0.302-0.060 0.423v2.234l0.060 0.423c0 0.121 0.121 0.241 0.241 0.302 0.060 0.121 0.181 0.181 0.302 0.181 0.108 0.042 0.232 0.066 0.362 0.066s0.255-0.024 0.369-0.068l-0.007 0.002c0.121 0 0.241-0.060 0.302-0.181 0.186-0.176 0.302-0.426 0.302-0.702 0-0.008-0-0.016-0-0.024l0 0.001v-2.234l-0.060-0.423c0-0.121-0.121-0.241-0.241-0.302zM24.875 30.309c0 0.002 0 0.004 0 0.006 0 0.115-0.046 0.22-0.121 0.296l0-0c-0.077 0.078-0.184 0.127-0.302 0.127s-0.225-0.049-0.302-0.127l-0-0c-0.075-0.067-0.122-0.163-0.122-0.271 0-0.011 0-0.021 0.001-0.032l-0 0.001v-2.234c-0-0.002-0-0.004-0-0.006 0-0.115 0.046-0.22 0.121-0.296l-0 0c0.077-0.078 0.184-0.127 0.302-0.127s0.225 0.049 0.302 0.127l0 0c0.075 0.076 0.121 0.181 0.121 0.296 0 0.002-0 0.004-0 0.006v-0 2.234zM29.826 31.275v-4.166h-0.604l-0.725 2.174-0.785-2.174h-0.604v4.166h0.604v-2.536l0.604 1.811h0.302l0.604-1.811v2.536h0.604zM33.208 27.411l-0.362-0.241-0.423-0.060h-0.906v4.166h0.604v-1.691h0.302c0.181 0 0.362 0 0.543-0.121l0.302-0.302 0.181-0.362c0.032-0.163 0.050-0.351 0.050-0.543s-0.018-0.38-0.053-0.562l0.003 0.019-0.242-0.362zM32.906 28.619l-0.060 0.241-0.181 0.181c-0.045 0.012-0.097 0.019-0.151 0.019s-0.106-0.007-0.155-0.020l0.004 0.001h-0.242v-1.389h0.302l0.242 0.060 0.181 0.181v0.785zM35.985 27.109h-0.483l-0.906 4.166h0.604l0.181-0.906h0.785l0.181 0.906h0.604l-0.966-4.166zM35.441 29.826l0.302-1.509 0.302 1.509h-0.604zM39.849 29.585l-1.026-2.415h-0.543v4.166h0.604v-2.536l0.906 2.536h0.604v-4.166h-0.604v2.415zM43.472 27.109l-0.483 1.63-0.543-1.63h-0.604l0.845 2.415v1.751h0.604v-1.811l0.785-2.294h-0.604z">
            </path>
        </symbol>

        <symbol version="1.1" xmlns="http://www.w3.org/2000/svg" viewBox="0 0 64 42" id="Logo-3">
            <title>Logo-5</title>
            <path
                d="M21.977 29.706l0.181 0.121-0.362 0.241-0.543 0.121c-0.181 0-0.302 0-0.483-0.121l-0.362-0.181-0.241-0.362c-0.056-0.134-0.088-0.29-0.088-0.453s0.032-0.319 0.091-0.461l-0.003 0.008 0.241-0.362 0.423-0.241c0.144-0.048 0.31-0.076 0.483-0.076s0.339 0.028 0.494 0.079l-0.011-0.003 0.362 0.241-0.121 0.121h-0.181l-0.060-0.060c-0.135-0.076-0.296-0.121-0.468-0.121-0.005 0-0.011 0-0.016 0h0.001l-0.362 0.060c-0.121 0-0.181 0.121-0.302 0.181l-0.181 0.302v0.664l0.181 0.302 0.302 0.181h0.543c0.163-0.018 0.308-0.084 0.424-0.182l-0.001 0.001h0.060zM25.781 29.041l-0.060 0.483-0.302 0.302c-0.060 0.121-0.241 0.181-0.362 0.241-0.302 0.121-0.664 0.121-1.026 0-0.14-0.061-0.26-0.143-0.363-0.242l0 0-0.241-0.302c-0.056-0.134-0.088-0.29-0.088-0.453s0.032-0.319 0.091-0.461l-0.003 0.008c0-0.121 0.121-0.241 0.241-0.362l0.362-0.181c0.362-0.121 0.725-0.121 1.026 0l0.362 0.181c0.222 0.189 0.362 0.47 0.362 0.783 0 0.001 0 0.002 0 0.002v-0zM25.419 29.041v-0.362c-0.088-0.207-0.263-0.363-0.478-0.421l-0.005-0.001c-0.108-0.035-0.233-0.056-0.362-0.056s-0.254 0.020-0.371 0.058l0.009-0.002c-0.121 0-0.241 0.121-0.302 0.181l-0.181 0.241v0.725c0.072 0.232 0.251 0.411 0.478 0.482l0.005 0.001h0.725l0.241-0.181c0.121-0.121 0.181-0.181 0.181-0.302l0.060-0.362zM28.377 29.464h0.060v-0.121l0.906-1.328h0.423v2.113h-0.302v-1.691l-0.845 1.328-0.121 0.060h-0.121v-0.060l-1.026-1.389v1.811h-0.302v-2.113h0.362l0.845 1.328 0.060 0.121zM31.517 29.343v0.785h-0.302v-2.113h1.147c0.121 0 0.181 0.060 0.302 0.181l0.121 0.181 0.060 0.302v0.241l-0.242 0.241-0.242 0.121h-0.845zM31.517 29.102h0.664l0.181-0.121 0.121-0.121v-0.362c0-0.060 0-0.121-0.121-0.181l-0.423-0.121h-0.423v0.906zM35.985 30.189h-0.362v-0.060l-0.242-0.604h-1.147l-0.242 0.604h-0.362l0.966-2.174h0.362l1.026 2.174zM34.355 29.343h0.906l-0.362-0.906-0.121-0.181v0.181l-0.423 0.906zM37.434 28.015l1.449 1.63v-1.691h0.302v2.234h-0.242l-1.509-1.811v1.811h-0.302v-2.174h0.242zM41.6 29.283v0.906h-0.302v-0.845l-0.966-1.268h0.423l0.604 0.906c0.022 0.050 0.042 0.11 0.058 0.172l0.002 0.009 0.060-0.121 0.060-0.060 0.604-0.845v-0.060h0.362l-0.845 1.147zM28.196 24.332l0.483 0.060c2.19-0.847 4.010-2.24 5.352-4.015l0.022-0.030c1.328-1.811 1.992-3.864 1.932-6.038l-2.415-2.053c0.143 0.661 0.225 1.421 0.225 2.199 0 1.609-0.35 3.136-0.977 4.51l0.028-0.068c-1.028 2.255-2.621 4.1-4.601 5.404l-0.048 0.029z">
            </path>
            <path
                d="M27.351 24.272c2.294-1.389 3.985-3.321 4.951-5.555s1.087-4.709 0.423-7.004l-3.442-3.019c1.102 1.868 1.754 4.116 1.754 6.516 0 3.526-1.406 6.725-3.689 9.064l0.003-0.003zM39.185 16.906c-0.688 2.443-2.139 4.482-4.075 5.896l-0.031 0.021c-0.604 0.483-1.268 0.845-1.992 1.208 1.76-0.44 3.298-1.212 4.614-2.253l-0.025 0.019c1.208-1.026 2.294-2.294 2.898-3.743l-1.328-1.147z">
            </path>
            <path
                d="M38.642 16.483l-2.053-1.751c0 2.053-0.664 3.985-1.872 5.675s-2.898 3.079-4.951 4.045l1.389-0.060c1.872-0.725 3.562-1.811 4.83-3.14 1.239-1.287 2.148-2.901 2.582-4.7l0.014-0.070zM27.653 7.366l-2.415-2.053c-2.146 0.7-3.949 1.958-5.297 3.603l-0.016 0.020c-1.231 1.524-1.98 3.481-1.992 5.612v0.003c0 2.174 0.845 4.347 2.415 6.038 1.57 1.811 3.743 3.019 6.219 3.562 2.26-2.306 3.654-5.468 3.654-8.955 0-2.935-0.988-5.64-2.65-7.8l0.022 0.030zM44.136 16.181c0-2.596-1.208-5.132-3.321-7.004-2.184-1.789-5.006-2.873-8.081-2.873-1.428 0-2.802 0.234-4.085 0.666l0.090-0.026 14.672 12.8c0.483-1.147 0.725-2.355 0.725-3.562z">
            </path>
        </symbol>

        <symbol version="1.1" xmlns="http://www.w3.org/2000/svg" viewBox="0 0 64 42" id="Logo-4">
            <title>Logo-4</title>
            <path
                d="M14.551 12.8c-1.449 0-2.596 1.026-2.596 2.294 0 1.328 1.208 2.415 2.596 2.415 1.449 0 2.657-1.087 2.657-2.415 0-1.208-1.208-2.294-2.657-2.294zM33.932 12.075c0-1.811-0.785-3.502-2.234-4.83-1.389-1.208-3.321-1.932-5.374-1.932-1.992 0-3.925 0.725-5.374 1.992-1.389 1.208-2.174 2.958-2.174 4.77v9.842s15.034-1.509 15.034-9.841zM6.641 25.117c0 1.268 0.604 2.415 1.57 3.321 0.981 0.855 2.27 1.379 3.681 1.389h0.002c1.449 0 2.777-0.483 3.743-1.389 0.944-0.808 1.545-1.991 1.57-3.317l0-0.004v-6.823s-10.566 1.026-10.566 6.823zM11.894 26.325c-0.242 0-0.543 0-0.725-0.181-0.242-0.121-0.423-0.302-0.543-0.543-0.060-0.241-0.121-0.483-0.060-0.725 0-0.241 0.181-0.423 0.362-0.604s0.483-0.302 0.725-0.362c0.242 0 0.543 0 0.785 0.121 0.242 0.060 0.483 0.241 0.604 0.423 0.159 0.195 0.255 0.447 0.255 0.721 0 0.336-0.144 0.638-0.375 0.848l-0.001 0.001-0.483 0.241-0.543 0.121zM21.555 24.151v2.596h-0.423v-2.596h0.483zM22.581 25.298v0.362h-1.208v-0.302h1.208zM22.702 24.151v0.423h-1.268v-0.423h1.268zM25.117 25.358v0.664l-0.302 0.423-0.302 0.241-0.483 0.121-0.423-0.121c-0.121 0-0.241-0.121-0.362-0.241-0.105-0.118-0.187-0.259-0.239-0.414l-0.002-0.009v-1.208l0.241-0.362 0.362-0.241 0.423-0.060 0.483 0.060 0.302 0.241 0.241 0.423 0.060 0.543zM24.634 25.54v-0.181l-0.060-0.362-0.121-0.302c-0.089-0.112-0.226-0.183-0.379-0.183-0.015 0-0.031 0.001-0.046 0.002l0.002-0h-0.241l-0.181 0.181-0.060 0.302-0.060 0.362v0.483l0.121 0.241 0.181 0.181h0.483l0.181-0.181 0.121-0.241v-0.362zM26.868 26.083v-0.121l-0.241-0.241-0.241-0.060-0.362-0.121-0.241-0.181-0.241-0.241c-0.008-0.036-0.012-0.078-0.012-0.121s0.004-0.084 0.013-0.125l-0.001 0.004v-0.302l0.241-0.241 0.302-0.121c0.126-0.042 0.272-0.066 0.423-0.066s0.296 0.024 0.432 0.069l-0.010-0.003 0.362 0.302 0.121 0.423h-0.543v-0.181l-0.181-0.181h-0.241c-0.036-0.008-0.078-0.012-0.121-0.012s-0.084 0.004-0.125 0.013l0.004-0.001-0.121 0.121v0.302l0.060 0.060 0.181 0.121h0.241l0.362 0.181 0.241 0.181c0.148 0.123 0.242 0.307 0.242 0.513 0 0.011-0 0.021-0.001 0.032l0-0.002-0.060 0.302-0.181 0.181-0.302 0.181c-0.097 0.023-0.209 0.036-0.323 0.036-0.283 0-0.547-0.081-0.77-0.221l0.006 0.004-0.241-0.241-0.121-0.362h0.543v0.181l0.121 0.121 0.181 0.060h0.423c0.098-0.043 0.168-0.133 0.181-0.24l0-0.001zM28.921 24.151v2.596h-0.543v-2.596h0.543zM29.706 24.151v0.423h-2.113v-0.423h2.113zM31.759 26.325v0.423h-1.389v-0.423h1.389zM30.551 24.151v2.596h-0.543v-2.596h0.543zM31.577 25.238v0.362h-1.208v-0.362h1.208zM31.759 24.151v0.423h-1.389v-0.423h1.389zM32.060 24.151h0.966c0.181 0 0.362 0 0.483 0.121 0.121 0 0.242 0.121 0.362 0.241l0.060 0.423v0.362l-0.242 0.241-0.302 0.181-0.181 0.060h-0.845v-0.423h0.906l0.121-0.181v-0.423l-0.121-0.121h-0.664v2.113h-0.604v-2.596zM33.509 26.747l-0.604-1.208h0.604l0.543 1.208h-0.604zM36.287 25.841h-0.664v-0.483h0.906c0-0.121 0.121-0.121 0.121-0.181v-0.423l-0.121-0.181c-0.036-0.010-0.078-0.015-0.121-0.015s-0.085 0.006-0.124 0.016l0.003-0.001h-0.483v2.113h-0.543v-2.536h1.026c0.181 0 0.362 0 0.483 0.121 0.286 0.121 0.483 0.4 0.483 0.725v0c0 0.181 0 0.302-0.121 0.423-0.060 0.121-0.181 0.241-0.362 0.302-0.141 0.070-0.306 0.114-0.481 0.121l-0.002 0zM39.306 26.325v0.423h-1.268v-0.423h1.208zM38.098 24.151v2.596h-0.483v-2.596h0.543zM39.125 25.238v0.362h-1.208v-0.362h1.208zM39.306 24.151v0.423h-1.268v-0.423h1.208zM40.815 24.151v2.596h-0.543v-2.596h0.604zM41.6 24.151v0.423h-2.053v-0.423h2.053zM43.653 26.325v0.423h-1.389v-0.423h1.389zM42.445 24.151v2.596h-0.543v-2.596h0.604zM43.472 25.238v0.362h-1.208v-0.362h1.208zM43.653 24.151v0.423h-1.389v-0.423h1.389zM43.955 24.151h0.966c0.181 0 0.362 0 0.483 0.121 0.181 0 0.302 0.121 0.362 0.241l0.121 0.423-0.060 0.362-0.242 0.241-0.302 0.181-0.121 0.060h-0.845v-0.423h0.845l0.121-0.181 0.060-0.181v-0.241l-0.181-0.121h-0.664v2.113h-0.543v-2.596zM45.404 26.747l-0.604-1.208h0.604l0.604 1.208h-0.604zM47.638 26.083v-0.121l-0.242-0.241-0.302-0.060-0.302-0.121-0.302-0.181-0.181-0.241c-0.008-0.036-0.012-0.078-0.012-0.121s0.004-0.084 0.013-0.125l-0.001 0.004v-0.302l0.242-0.241 0.242-0.121c0.135-0.048 0.291-0.076 0.453-0.076s0.318 0.028 0.463 0.079l-0.010-0.003 0.362 0.302 0.060 0.423h-0.423l-0.060-0.181-0.121-0.181h-0.242c-0.036-0.008-0.078-0.012-0.121-0.012s-0.084 0.004-0.125 0.013l0.004-0.001-0.121 0.121-0.060 0.181v0.121l0.121 0.060 0.181 0.121h0.181l0.362 0.181 0.302 0.181c0.148 0.123 0.242 0.307 0.242 0.513 0 0.011-0 0.021-0.001 0.032l0-0.002c0 0.121 0 0.181-0.121 0.302l-0.181 0.181-0.302 0.181c-0.11 0.030-0.236 0.047-0.367 0.047-0.29 0-0.56-0.085-0.786-0.232l0.006 0.003-0.242-0.241-0.060-0.362h0.543v0.181l0.121 0.121 0.181 0.060h0.423c0.098-0.043 0.168-0.133 0.181-0.24l0-0.001z">
            </path>
        </symbol>

        <symbol version="1.1" xmlns="http://www.w3.org/2000/svg" viewBox="0 0 64 42" id="Logo-5">
            <title>Logo-5</title>
            <path
                d="M16.181 27.049c0.121 0.181 0.181 0.362 0.181 0.604l-0.060 0.423-0.241 0.302c-0.302 0.241-0.664 0.302-1.026 0.302h-1.751v-3.743h1.691c0.362 0 0.725 0.060 0.966 0.241l0.242 0.302 0.121 0.423c0 0.181-0.060 0.362-0.241 0.604l-0.483 0.241c0.242 0 0.423 0.121 0.604 0.302zM14.128 26.445h0.725c0.121 0.060 0.302 0 0.423-0.060l0.121-0.181 0.060-0.181v-0.241l-0.181-0.121c-0.121-0.121-0.302-0.181-0.483-0.121h-0.664v0.966zM15.336 27.955l0.181-0.181v-0.423l-0.121-0.181c-0.181-0.121-0.362-0.121-0.543-0.121h-0.725v1.026h0.725c0.181 0 0.362 0 0.543-0.121zM19.683 28.679l-0.966-1.509h-0.362v1.449h-0.845v-3.743h1.57c0.423 0 0.785 0.060 1.087 0.302 0.241 0.241 0.362 0.483 0.362 0.785 0 0.241-0.060 0.543-0.241 0.785-0.181 0.181-0.483 0.302-0.725 0.362l1.026 1.509h-0.906zM18.355 26.687h0.664c0.483 0 0.725-0.181 0.725-0.604l-0.060-0.181c-0.031-0.070-0.071-0.13-0.121-0.181l0 0-0.543-0.181h-0.664v1.208zM24.151 27.894h-1.63l-0.302 0.785h-0.845l1.509-3.683h0.906l1.509 3.623h-0.845l-0.302-0.725zM23.909 27.351l-0.604-1.57-0.604 1.57h1.208zM29.766 28.679h-0.785l-1.811-2.536v2.536h-0.845v-3.743h0.785l1.811 2.536v-2.536h0.845v3.743zM34.415 27.774c-0.121 0.302-0.423 0.483-0.725 0.604-0.362 0.241-0.725 0.302-1.147 0.302h-1.449v-3.743h1.509c0.423 0 0.785 0.060 1.208 0.241 0.242 0.121 0.543 0.362 0.664 0.604 0.162 0.287 0.258 0.631 0.258 0.996s-0.096 0.709-0.263 1.006l0.005-0.010zM33.509 27.713c0.242-0.302 0.362-0.604 0.362-0.906 0-0.362-0.121-0.604-0.362-0.906-0.302-0.241-0.604-0.362-1.026-0.302h-0.604v2.415h0.604c0.362 0 0.725-0.121 1.026-0.302zM24.694 4.166s10.506 3.623 10.264 8.875v8.936s-10.506-3.623-10.264-8.936v-8.875zM44.377 19.864c1.992-1.208 4.226-2.053 6.642-2.234v-2.838c-2.752 0.986-5.023 2.751-6.612 5.028l-0.029 0.044z">
            </path>
            <path
                d="M43.17 20.709c1.63-3.019 4.468-5.313 7.849-6.46v-8.030s-14.974 5.192-14.672 12.679v12.679l1.751-0.664v-1.208c0.362-3.502 2.174-6.762 5.072-8.996z">
            </path>
            <path
                d="M41.721 25.419c0.121-0.906 0.242-1.751 0.543-2.596-1.899 2.003-3.099 4.686-3.199 7.648l-0.001 0.019 2.898-1.389c-0.242-1.208-0.362-2.415-0.242-3.683zM42.325 25.479c-0.030 0.312-0.047 0.675-0.047 1.042 0 0.806 0.083 1.594 0.242 2.353l-0.013-0.074c4.106-2.234 8.694-5.736 8.513-9.902v-0.362c-2.898 0.302-5.675 1.449-7.789 3.321-0.483 1.208-0.785 2.415-0.906 3.623z">
            </path>
        </symbol>

        <symbol version="1.1" xmlns="http://www.w3.org/2000/svg" viewBox="0 0 64 42" id="Logo-6">
            <title>Logo-6</title>
            <path
                d="M32.242 16.604c-0.228-0.3-0.366-0.68-0.366-1.092 0-0.041 0.001-0.081 0.004-0.121l-0 0.005v-1.751c0-0.543 0.121-0.906 0.362-1.208s0.664-0.423 1.208-0.423c0.604 0 1.026 0.121 1.208 0.362 0.302 0.302 0.423 0.664 0.362 1.026v0.423h-0.966v-0.785c0-0.121-0.121-0.181-0.181-0.242-0.1-0.075-0.226-0.121-0.362-0.121v0c-0.137 0-0.263 0.045-0.364 0.122l0.002-0.001c-0.121 0-0.181 0.121-0.181 0.242v2.536l0.060 0.604 0.242 0.121c0.060 0 0.181 0.060 0.242 0h0.362l0.121-0.302v-0.845h1.026v0.362c0 0.423-0.060 0.785-0.302 1.147-0.242 0.241-0.604 0.362-1.208 0.362s-1.026-0.121-1.208-0.423zM36.408 16.604c-0.302-0.241-0.423-0.604-0.423-1.208v-1.811c0-0.483 0.121-0.906 0.423-1.208 0.242-0.242 0.604-0.362 1.208-0.362s1.026 0.121 1.268 0.423c0.242 0.242 0.362 0.604 0.362 1.208v1.811c0 0.483-0.121 0.906-0.362 1.208-0.242 0.241-0.664 0.362-1.208 0.362-0.604 0-1.026-0.121-1.268-0.423zM38.098 16.181l0.121-0.543v-2.234c0-0.181 0-0.362-0.121-0.543l-0.181-0.121c-0.045-0.012-0.097-0.019-0.151-0.019s-0.106 0.007-0.155 0.020l0.004-0.001c-0.036-0.008-0.078-0.012-0.121-0.012s-0.084 0.004-0.125 0.013l0.004-0.001-0.181 0.121c-0.121 0.181-0.181 0.362-0.121 0.543v2.234c0 0.181 0 0.362 0.121 0.604l0.181 0.060c0.080 0.033 0.174 0.053 0.272 0.053s0.191-0.019 0.276-0.055l-0.005 0.002s0.121 0 0.181-0.121zM40.453 12.075h1.087l0.785 3.381 0.845-3.381h1.026l0.060 4.83h-0.725l-0.121-3.321-0.785 3.381h-0.604l-0.785-3.381-0.181 3.321h-0.785l0.121-4.83zM45.464 12.075h1.691c0.966 0 1.449 0.483 1.449 1.389s-0.543 1.328-1.509 1.328h-0.604v2.174h-1.026v-4.83zM46.913 14.189h0.302l0.242-0.181 0.181-0.543-0.060-0.423-0.060-0.181-0.181-0.060-0.423-0.121h-0.423v1.509h0.423zM50.113 12.075h1.026l1.208 4.83h-1.026l-0.181-1.087h-1.026l-0.242 1.147h-0.966l1.208-4.83zM51.019 15.275l-0.423-2.053-0.362 2.053h0.785zM53.192 12.075h0.725l1.389 2.777v-2.777h0.845v4.83h-0.664l-1.389-2.838v2.838h-0.966v-4.83zM58.143 15.094l-1.147-3.019h0.966l0.725 1.932 0.604-1.932h0.966l-1.147 3.019v1.811h-0.966v-1.811zM33.811 19.079v0.241h-0.785v1.992h-0.423v-1.992h-0.845v-0.241h2.053zM36.468 21.313h-0.302l-0.121-0.060-0.242-0.543h-1.147l-0.242 0.543v0.060h-0.362l1.026-2.234h0.362l1.026 2.234zM34.777 20.528h0.966l-0.423-0.906-0.060-0.181v0.121l-0.060 0.060-0.423 0.906zM38.219 21.132h0.181c0.136-0.023 0.257-0.065 0.369-0.124l-0.007 0.003h0.121v-0.543h-0.483v-0.241h0.785v0.906c-0.192 0.104-0.419 0.17-0.661 0.181l-0.004 0h-0.845c-0.166-0.072-0.307-0.174-0.422-0.301l-0.001-0.001-0.242-0.302-0.121-0.483c0-0.181 0-0.302 0.121-0.483 0-0.121 0.121-0.241 0.242-0.362l0.423-0.241c0.127-0.033 0.273-0.052 0.423-0.052s0.296 0.019 0.435 0.054l-0.012-0.003c0.157 0.019 0.3 0.062 0.431 0.124l-0.008-0.004 0.181 0.121-0.060 0.121h-0.242l-0.181-0.181c-0.064-0.011-0.137-0.018-0.211-0.018s-0.148 0.006-0.219 0.019l0.008-0.001c-0.064-0.012-0.137-0.019-0.211-0.019s-0.148 0.007-0.219 0.020l0.007-0.001-0.302 0.181-0.181 0.302v0.725c0 0.121 0.121 0.241 0.242 0.302 0.161 0.15 0.378 0.243 0.617 0.243 0.017 0 0.033-0 0.049-0.001l-0.002 0zM41.479 21.072h1.147v0.241h-1.449v-2.234h0.302v2.053zM43.774 21.313h-0.302v-2.234h0.362v2.234zM45.102 19.079v0.060l1.57 1.691v-1.751h0.302v2.234h-0.302l-1.509-1.751v1.751h-0.302v-2.234h0.181zM49.509 19.079v0.241h-1.208v0.725h0.966v0.241h-0.966v0.845h1.208v0.241h-1.57v-2.234h1.57zM12.8 5.253l15.577 3.864v13.343l-15.577-3.743v-13.464zM11.774 4.226v15.094l17.57 4.347v-15.215l-17.509-4.287z">
            </path>
            <path d="M21.192 30.672l-17.57-4.347v-15.094l17.57 4.226v15.215z"></path>
            <path
                d="M12.075 5.132l15.336 3.743-6.521 5.675-15.336-3.804 6.521-5.615zM11.774 4.166l-8.151 7.004 17.57 4.347 8.151-7.064-17.509-4.287zM22.159 29.826l7.245-6.219-7.245-1.751v7.97z">
            </path>
        </symbol>

        <symbol xmlns="http://www.w3.org/2000/svg" fill="none" viewBox="0 0 18 18" id="close-modal">
            <path fill="#000"
                d="M15 4.10786 13.8921 3 9.5 7.39214 5.10786 3 4 4.10786 8.39214 8.5 4 12.8921 5.10786 14 9.5 9.60786 13.8921 14 15 12.8921 10.6079 8.5 15 4.10786Z">
            </path>
        </symbol>

    </svg>

</svg>