<!-- Generated by IcoMoon.io -->
<svg width="0" height="0" class="hidden">
    <symbol version="1.1" xmlns="http://www.w3.org/2000/svg" viewBox="0 0 64 42" id="Logo-5">
        <title>Logo-5</title>
        <path
            d="M16.181 27.049c0.121 0.181 0.181 0.362 0.181 0.604l-0.060 0.423-0.241 0.302c-0.302 0.241-0.664 0.302-1.026 0.302h-1.751v-3.743h1.691c0.362 0 0.725 0.060 0.966 0.241l0.242 0.302 0.121 0.423c0 0.181-0.060 0.362-0.241 0.604l-0.483 0.241c0.242 0 0.423 0.121 0.604 0.302zM14.128 26.445h0.725c0.121 0.060 0.302 0 0.423-0.060l0.121-0.181 0.060-0.181v-0.241l-0.181-0.121c-0.121-0.121-0.302-0.181-0.483-0.121h-0.664v0.966zM15.336 27.955l0.181-0.181v-0.423l-0.121-0.181c-0.181-0.121-0.362-0.121-0.543-0.121h-0.725v1.026h0.725c0.181 0 0.362 0 0.543-0.121zM19.683 28.679l-0.966-1.509h-0.362v1.449h-0.845v-3.743h1.57c0.423 0 0.785 0.060 1.087 0.302 0.241 0.241 0.362 0.483 0.362 0.785 0 0.241-0.060 0.543-0.241 0.785-0.181 0.181-0.483 0.302-0.725 0.362l1.026 1.509h-0.906zM18.355 26.687h0.664c0.483 0 0.725-0.181 0.725-0.604l-0.060-0.181c-0.031-0.070-0.071-0.13-0.121-0.181l0 0-0.543-0.181h-0.664v1.208zM24.151 27.894h-1.63l-0.302 0.785h-0.845l1.509-3.683h0.906l1.509 3.623h-0.845l-0.302-0.725zM23.909 27.351l-0.604-1.57-0.604 1.57h1.208zM29.766 28.679h-0.785l-1.811-2.536v2.536h-0.845v-3.743h0.785l1.811 2.536v-2.536h0.845v3.743zM34.415 27.774c-0.121 0.302-0.423 0.483-0.725 0.604-0.362 0.241-0.725 0.302-1.147 0.302h-1.449v-3.743h1.509c0.423 0 0.785 0.060 1.208 0.241 0.242 0.121 0.543 0.362 0.664 0.604 0.162 0.287 0.258 0.631 0.258 0.996s-0.096 0.709-0.263 1.006l0.005-0.010zM33.509 27.713c0.242-0.302 0.362-0.604 0.362-0.906 0-0.362-0.121-0.604-0.362-0.906-0.302-0.241-0.604-0.362-1.026-0.302h-0.604v2.415h0.604c0.362 0 0.725-0.121 1.026-0.302zM24.694 4.166s10.506 3.623 10.264 8.875v8.936s-10.506-3.623-10.264-8.936v-8.875zM44.377 19.864c1.992-1.208 4.226-2.053 6.642-2.234v-2.838c-2.752 0.986-5.023 2.751-6.612 5.028l-0.029 0.044z">
        </path>
        <path
            d="M43.17 20.709c1.63-3.019 4.468-5.313 7.849-6.46v-8.030s-14.974 5.192-14.672 12.679v12.679l1.751-0.664v-1.208c0.362-3.502 2.174-6.762 5.072-8.996z">
        </path>
        <path
            d="M41.721 25.419c0.121-0.906 0.242-1.751 0.543-2.596-1.899 2.003-3.099 4.686-3.199 7.648l-0.001 0.019 2.898-1.389c-0.242-1.208-0.362-2.415-0.242-3.683zM42.325 25.479c-0.030 0.312-0.047 0.675-0.047 1.042 0 0.806 0.083 1.594 0.242 2.353l-0.013-0.074c4.106-2.234 8.694-5.736 8.513-9.902v-0.362c-2.898 0.302-5.675 1.449-7.789 3.321-0.483 1.208-0.785 2.415-0.906 3.623z">
        </path>
    </symbol>
</svg>