<!-- Generated by IcoMoon.io -->
<svg width="0" height="0" class="hidden">
    <symbol version="1.1" xmlns="http://www.w3.org/2000/svg" viewBox="0 0 64 42" id="Logo-3">
        <title>Logo-5</title>
        <path
            d="M21.977 29.706l0.181 0.121-0.362 0.241-0.543 0.121c-0.181 0-0.302 0-0.483-0.121l-0.362-0.181-0.241-0.362c-0.056-0.134-0.088-0.29-0.088-0.453s0.032-0.319 0.091-0.461l-0.003 0.008 0.241-0.362 0.423-0.241c0.144-0.048 0.31-0.076 0.483-0.076s0.339 0.028 0.494 0.079l-0.011-0.003 0.362 0.241-0.121 0.121h-0.181l-0.060-0.060c-0.135-0.076-0.296-0.121-0.468-0.121-0.005 0-0.011 0-0.016 0h0.001l-0.362 0.060c-0.121 0-0.181 0.121-0.302 0.181l-0.181 0.302v0.664l0.181 0.302 0.302 0.181h0.543c0.163-0.018 0.308-0.084 0.424-0.182l-0.001 0.001h0.060zM25.781 29.041l-0.060 0.483-0.302 0.302c-0.060 0.121-0.241 0.181-0.362 0.241-0.302 0.121-0.664 0.121-1.026 0-0.14-0.061-0.26-0.143-0.363-0.242l0 0-0.241-0.302c-0.056-0.134-0.088-0.29-0.088-0.453s0.032-0.319 0.091-0.461l-0.003 0.008c0-0.121 0.121-0.241 0.241-0.362l0.362-0.181c0.362-0.121 0.725-0.121 1.026 0l0.362 0.181c0.222 0.189 0.362 0.47 0.362 0.783 0 0.001 0 0.002 0 0.002v-0zM25.419 29.041v-0.362c-0.088-0.207-0.263-0.363-0.478-0.421l-0.005-0.001c-0.108-0.035-0.233-0.056-0.362-0.056s-0.254 0.020-0.371 0.058l0.009-0.002c-0.121 0-0.241 0.121-0.302 0.181l-0.181 0.241v0.725c0.072 0.232 0.251 0.411 0.478 0.482l0.005 0.001h0.725l0.241-0.181c0.121-0.121 0.181-0.181 0.181-0.302l0.060-0.362zM28.377 29.464h0.060v-0.121l0.906-1.328h0.423v2.113h-0.302v-1.691l-0.845 1.328-0.121 0.060h-0.121v-0.060l-1.026-1.389v1.811h-0.302v-2.113h0.362l0.845 1.328 0.060 0.121zM31.517 29.343v0.785h-0.302v-2.113h1.147c0.121 0 0.181 0.060 0.302 0.181l0.121 0.181 0.060 0.302v0.241l-0.242 0.241-0.242 0.121h-0.845zM31.517 29.102h0.664l0.181-0.121 0.121-0.121v-0.362c0-0.060 0-0.121-0.121-0.181l-0.423-0.121h-0.423v0.906zM35.985 30.189h-0.362v-0.060l-0.242-0.604h-1.147l-0.242 0.604h-0.362l0.966-2.174h0.362l1.026 2.174zM34.355 29.343h0.906l-0.362-0.906-0.121-0.181v0.181l-0.423 0.906zM37.434 28.015l1.449 1.63v-1.691h0.302v2.234h-0.242l-1.509-1.811v1.811h-0.302v-2.174h0.242zM41.6 29.283v0.906h-0.302v-0.845l-0.966-1.268h0.423l0.604 0.906c0.022 0.050 0.042 0.11 0.058 0.172l0.002 0.009 0.060-0.121 0.060-0.060 0.604-0.845v-0.060h0.362l-0.845 1.147zM28.196 24.332l0.483 0.060c2.19-0.847 4.010-2.24 5.352-4.015l0.022-0.030c1.328-1.811 1.992-3.864 1.932-6.038l-2.415-2.053c0.143 0.661 0.225 1.421 0.225 2.199 0 1.609-0.35 3.136-0.977 4.51l0.028-0.068c-1.028 2.255-2.621 4.1-4.601 5.404l-0.048 0.029z">
        </path>
        <path
            d="M27.351 24.272c2.294-1.389 3.985-3.321 4.951-5.555s1.087-4.709 0.423-7.004l-3.442-3.019c1.102 1.868 1.754 4.116 1.754 6.516 0 3.526-1.406 6.725-3.689 9.064l0.003-0.003zM39.185 16.906c-0.688 2.443-2.139 4.482-4.075 5.896l-0.031 0.021c-0.604 0.483-1.268 0.845-1.992 1.208 1.76-0.44 3.298-1.212 4.614-2.253l-0.025 0.019c1.208-1.026 2.294-2.294 2.898-3.743l-1.328-1.147z">
        </path>
        <path
            d="M38.642 16.483l-2.053-1.751c0 2.053-0.664 3.985-1.872 5.675s-2.898 3.079-4.951 4.045l1.389-0.060c1.872-0.725 3.562-1.811 4.83-3.14 1.239-1.287 2.148-2.901 2.582-4.7l0.014-0.070zM27.653 7.366l-2.415-2.053c-2.146 0.7-3.949 1.958-5.297 3.603l-0.016 0.020c-1.231 1.524-1.98 3.481-1.992 5.612v0.003c0 2.174 0.845 4.347 2.415 6.038 1.57 1.811 3.743 3.019 6.219 3.562 2.26-2.306 3.654-5.468 3.654-8.955 0-2.935-0.988-5.64-2.65-7.8l0.022 0.030zM44.136 16.181c0-2.596-1.208-5.132-3.321-7.004-2.184-1.789-5.006-2.873-8.081-2.873-1.428 0-2.802 0.234-4.085 0.666l0.090-0.026 14.672 12.8c0.483-1.147 0.725-2.355 0.725-3.562z">
        </path>
    </symbol>
</svg>