<!-- Generated by IcoMoon.io -->
<svg width="0" height="0" class="hidden">
    <symbol version="1.1" xmlns="http://www.w3.org/2000/svg" viewBox="0 0 64 32" id="Logo-1">
        <title>Logo-1</title>
        <path fill="#e5e5e5" d="M0 0h64v32h-64z"></path>
        <path fill="#fff" d="M-149.132-1485.887h966.038v1769.66h-966.038z"></path>
        <path fill="none" stroke="#afb1b8" stroke-linejoin="miter" stroke-linecap="butt" stroke-miterlimit="4"
            stroke-width="0.6038"
            d="M-16.906-8.151h97.811c1.167 0 2.113 0.946 2.113 2.113v44.075c0 1.167-0.946 2.113-2.113 2.113h-97.811c-1.167 0-2.113-0.946-2.113-2.113v-44.075c0-1.167 0.946-2.113 2.113-2.113z">
        </path>
        <path fill="#afb1b8"
            d="M22.943 4.226l4.226 4.045h-7.849v19.502h20.528v-7.487l4.226 3.985v-19.985h-21.132zM39.668 19.804l-12.015-11.351h12.015v11.351zM35.925 24.875h-13.343v-13.102h0.906v12.196h12.438v0.906zM25.721 30.309l-0.483 1.026-0.483-1.026h-0.423l0.725 1.328v0.785h0.362v-0.785l0.725-1.328h-0.423zM26.325 32.423l0.181-0.483h0.845l0.181 0.483h0.362l-0.725-2.113h-0.362l-0.845 2.113h0.362zM26.928 30.732l0.302 0.906h-0.604l0.302-0.906zM28.921 31.577l-0.121 0.302c0 0.181 0.060 0.302 0.241 0.423 0.121 0.121 0.241 0.181 0.483 0.181l0.543-0.181 0.121 0.121h0.423l-0.302-0.362c0.121-0.181 0.181-0.362 0.181-0.604h-0.302c0 0.121 0 0.241-0.121 0.362l-0.423-0.483 0.181-0.121c0.060-0.060 0.181-0.121 0.181-0.241 0.049-0.075 0.079-0.166 0.079-0.265 0-0.132-0.053-0.252-0.139-0.339l0 0c-0.093-0.075-0.212-0.121-0.342-0.121-0.007 0-0.014 0-0.021 0l0.001-0c-0.166 0.002-0.315 0.071-0.423 0.181l-0 0c-0.121 0.060-0.181 0.241-0.181 0.362l0.060 0.241 0.181 0.241c-0.119 0.083-0.219 0.183-0.299 0.298l-0.003 0.004zM29.887 32.060c-0.1 0.075-0.226 0.121-0.362 0.121v0l-0.241-0.060c-0.074-0.056-0.121-0.143-0.121-0.241v0c0-0.121 0.060-0.241 0.181-0.302l0.060-0.060 0.483 0.604zM29.464 31.094l-0.121-0.302v-0.181h0.423l0.060 0.181-0.060 0.181-0.241 0.121zM32.966 32.302c0.181-0.121 0.242-0.302 0.242-0.604h-0.362c0 0.181 0 0.302-0.121 0.362l-0.362 0.121c-0.005 0-0.010 0-0.015 0-0.143 0-0.27-0.071-0.346-0.18l-0.001-0.001-0.121-0.543v-0.181c0-0.241 0.060-0.423 0.181-0.543 0.060-0.121 0.181-0.181 0.362-0.181 0.121 0 0.242 0 0.302 0.121l0.121 0.362h0.362c0-0.241-0.060-0.423-0.242-0.604-0.121-0.121-0.302-0.181-0.604-0.181l-0.423 0.121-0.302 0.362c-0.078 0.155-0.123 0.338-0.123 0.531 0 0.026 0.001 0.051 0.002 0.076l-0-0.003v0.181c0 0.181 0 0.362 0.121 0.483 0.060 0.181 0.181 0.302 0.302 0.362l0.423 0.121c0.302 0 0.483-0.060 0.604-0.181zM35.2 32l0.060-0.604c0-0.241 0-0.423-0.121-0.604-0.133-0.277-0.405-0.468-0.723-0.483l-0.002-0-0.483 0.121-0.302 0.423c-0.121 0.121-0.121 0.302-0.121 0.543v0.121c0 0.181 0 0.362 0.121 0.543 0 0.121 0.181 0.242 0.302 0.362l0.483 0.121c0.181 0 0.302 0 0.423-0.121l0.362-0.362zM34.777 30.792l0.121 0.543v0.121c0 0.241 0 0.423-0.121 0.543l-0.362 0.181c-0.022 0.004-0.046 0.006-0.072 0.006-0.146 0-0.274-0.074-0.35-0.186l-0.001-0.001-0.121-0.604c0-0.241 0-0.423 0.121-0.604 0.121-0.060 0.242-0.181 0.423-0.181 0.121 0 0.242 0.121 0.362 0.241z">
        </path>
    </symbol>
</svg>