<!-- Generated by IcoMoon.io -->
<svg width="0" height="0" class="hidden">
    <symbol version="1.1" xmlns="http://www.w3.org/2000/svg" viewBox="0 0 64 42" id="Logo-2">
        <title>Logo-2</title>
        <path
            d="M30.249 3.623h-0.664c-0.117-0.003-0.254-0.005-0.392-0.005s-0.276 0.002-0.413 0.006l0.020-0c-2.174 0.121-4.347 0.664-6.34 1.63l-0.302 0.121v13.404l0.604-0.241c1.973-0.67 4.248-1.085 6.611-1.147l0.030-0.001v1.811h-0.664c-3.052 0.155-5.878 0.986-8.374 2.346l0.103-0.051v-17.147c2.592-1.55 5.716-2.469 9.055-2.475h0.304c1.129 0.029 2.209 0.16 3.255 0.383l-0.116-0.021v1.751c-0.725-0.181-1.449-0.241-2.174-0.302h-0.604zM33.268 5.434h1.208c3.346-0.009 6.487-0.881 9.213-2.404l-0.096 0.049v16.906c-2.573 1.504-5.664 2.392-8.963 2.392-1.229 0-2.43-0.123-3.59-0.358l0.115 0.020v-16.906c0.639 0.129 1.387 0.216 2.151 0.241l0.022 0.001zM41.842 5.555l-0.604 0.181-1.691 0.483c-1.524 0.401-3.274 0.632-5.077 0.632-0.38 0-0.758-0.010-1.134-0.030l0.052 0.002h-0.483v13.766h0.362l1.208 0.060c0.027 0 0.060 0 0.092 0 2.581 0 5.021-0.602 7.187-1.673l-0.095 0.042 0.242-0.121v-13.343z">
        </path>
        <path
            d="M21.555 27.351c-0.151-0.169-0.362-0.282-0.6-0.302l-0.003-0c-0.181 0-0.302 0-0.423 0.121-0.121 0-0.241 0.121-0.302 0.181l-0.241 0.302v2.657c-0.060 0.181 0 0.362 0 0.483l0.241 0.302 0.362 0.181h0.664c0.357-0.147 0.604-0.493 0.604-0.896 0-0.004-0-0.007-0-0.011v0.001-0.302h-0.604v0.423l-0.121 0.121-0.121 0.060h-0.121c-0.030 0.011-0.064 0.017-0.1 0.017-0.078 0-0.149-0.029-0.202-0.078l0 0-0.060-0.302v-2.174l0.060-0.302c0.048-0.108 0.154-0.182 0.277-0.182 0.009 0 0.017 0 0.026 0.001l-0.001-0c0.098 0 0.186 0.047 0.241 0.12l0.001 0.001c0.121 0.121 0.121 0.241 0.121 0.362v0.181h0.604v-0.241c-0.007-0.282-0.121-0.536-0.302-0.725l0 0zM25.117 27.351c-0.192-0.175-0.449-0.282-0.731-0.282-0.105 0-0.207 0.015-0.303 0.043l0.008-0.002-0.302 0.241-0.241 0.302-0.060 0.423v2.234l0.060 0.423c0 0.121 0.121 0.241 0.241 0.302 0.060 0.121 0.181 0.181 0.302 0.181 0.108 0.042 0.232 0.066 0.362 0.066s0.255-0.024 0.369-0.068l-0.007 0.002c0.121 0 0.241-0.060 0.302-0.181 0.186-0.176 0.302-0.426 0.302-0.702 0-0.008-0-0.016-0-0.024l0 0.001v-2.234l-0.060-0.423c0-0.121-0.121-0.241-0.241-0.302zM24.875 30.309c0 0.002 0 0.004 0 0.006 0 0.115-0.046 0.22-0.121 0.296l0-0c-0.077 0.078-0.184 0.127-0.302 0.127s-0.225-0.049-0.302-0.127l-0-0c-0.075-0.067-0.122-0.163-0.122-0.271 0-0.011 0-0.021 0.001-0.032l-0 0.001v-2.234c-0-0.002-0-0.004-0-0.006 0-0.115 0.046-0.22 0.121-0.296l-0 0c0.077-0.078 0.184-0.127 0.302-0.127s0.225 0.049 0.302 0.127l0 0c0.075 0.076 0.121 0.181 0.121 0.296 0 0.002-0 0.004-0 0.006v-0 2.234zM29.826 31.275v-4.166h-0.604l-0.725 2.174-0.785-2.174h-0.604v4.166h0.604v-2.536l0.604 1.811h0.302l0.604-1.811v2.536h0.604zM33.208 27.411l-0.362-0.241-0.423-0.060h-0.906v4.166h0.604v-1.691h0.302c0.181 0 0.362 0 0.543-0.121l0.302-0.302 0.181-0.362c0.032-0.163 0.050-0.351 0.050-0.543s-0.018-0.38-0.053-0.562l0.003 0.019-0.242-0.362zM32.906 28.619l-0.060 0.241-0.181 0.181c-0.045 0.012-0.097 0.019-0.151 0.019s-0.106-0.007-0.155-0.020l0.004 0.001h-0.242v-1.389h0.302l0.242 0.060 0.181 0.181v0.785zM35.985 27.109h-0.483l-0.906 4.166h0.604l0.181-0.906h0.785l0.181 0.906h0.604l-0.966-4.166zM35.441 29.826l0.302-1.509 0.302 1.509h-0.604zM39.849 29.585l-1.026-2.415h-0.543v4.166h0.604v-2.536l0.906 2.536h0.604v-4.166h-0.604v2.415zM43.472 27.109l-0.483 1.63-0.543-1.63h-0.604l0.845 2.415v1.751h0.604v-1.811l0.785-2.294h-0.604z">
        </path>
    </symbol>
</svg>