<!-- Generated by IcoMoon.io -->
<svg width="0" height="0" class="hidden">
    <symbol version="1.1" xmlns="http://www.w3.org/2000/svg" viewBox="0 0 64 42" id="Logo-6">
        <title>Logo-6</title>
        <path
            d="M32.242 16.604c-0.228-0.3-0.366-0.68-0.366-1.092 0-0.041 0.001-0.081 0.004-0.121l-0 0.005v-1.751c0-0.543 0.121-0.906 0.362-1.208s0.664-0.423 1.208-0.423c0.604 0 1.026 0.121 1.208 0.362 0.302 0.302 0.423 0.664 0.362 1.026v0.423h-0.966v-0.785c0-0.121-0.121-0.181-0.181-0.242-0.1-0.075-0.226-0.121-0.362-0.121v0c-0.137 0-0.263 0.045-0.364 0.122l0.002-0.001c-0.121 0-0.181 0.121-0.181 0.242v2.536l0.060 0.604 0.242 0.121c0.060 0 0.181 0.060 0.242 0h0.362l0.121-0.302v-0.845h1.026v0.362c0 0.423-0.060 0.785-0.302 1.147-0.242 0.241-0.604 0.362-1.208 0.362s-1.026-0.121-1.208-0.423zM36.408 16.604c-0.302-0.241-0.423-0.604-0.423-1.208v-1.811c0-0.483 0.121-0.906 0.423-1.208 0.242-0.242 0.604-0.362 1.208-0.362s1.026 0.121 1.268 0.423c0.242 0.242 0.362 0.604 0.362 1.208v1.811c0 0.483-0.121 0.906-0.362 1.208-0.242 0.241-0.664 0.362-1.208 0.362-0.604 0-1.026-0.121-1.268-0.423zM38.098 16.181l0.121-0.543v-2.234c0-0.181 0-0.362-0.121-0.543l-0.181-0.121c-0.045-0.012-0.097-0.019-0.151-0.019s-0.106 0.007-0.155 0.020l0.004-0.001c-0.036-0.008-0.078-0.012-0.121-0.012s-0.084 0.004-0.125 0.013l0.004-0.001-0.181 0.121c-0.121 0.181-0.181 0.362-0.121 0.543v2.234c0 0.181 0 0.362 0.121 0.604l0.181 0.060c0.080 0.033 0.174 0.053 0.272 0.053s0.191-0.019 0.276-0.055l-0.005 0.002s0.121 0 0.181-0.121zM40.453 12.075h1.087l0.785 3.381 0.845-3.381h1.026l0.060 4.83h-0.725l-0.121-3.321-0.785 3.381h-0.604l-0.785-3.381-0.181 3.321h-0.785l0.121-4.83zM45.464 12.075h1.691c0.966 0 1.449 0.483 1.449 1.389s-0.543 1.328-1.509 1.328h-0.604v2.174h-1.026v-4.83zM46.913 14.189h0.302l0.242-0.181 0.181-0.543-0.060-0.423-0.060-0.181-0.181-0.060-0.423-0.121h-0.423v1.509h0.423zM50.113 12.075h1.026l1.208 4.83h-1.026l-0.181-1.087h-1.026l-0.242 1.147h-0.966l1.208-4.83zM51.019 15.275l-0.423-2.053-0.362 2.053h0.785zM53.192 12.075h0.725l1.389 2.777v-2.777h0.845v4.83h-0.664l-1.389-2.838v2.838h-0.966v-4.83zM58.143 15.094l-1.147-3.019h0.966l0.725 1.932 0.604-1.932h0.966l-1.147 3.019v1.811h-0.966v-1.811zM33.811 19.079v0.241h-0.785v1.992h-0.423v-1.992h-0.845v-0.241h2.053zM36.468 21.313h-0.302l-0.121-0.060-0.242-0.543h-1.147l-0.242 0.543v0.060h-0.362l1.026-2.234h0.362l1.026 2.234zM34.777 20.528h0.966l-0.423-0.906-0.060-0.181v0.121l-0.060 0.060-0.423 0.906zM38.219 21.132h0.181c0.136-0.023 0.257-0.065 0.369-0.124l-0.007 0.003h0.121v-0.543h-0.483v-0.241h0.785v0.906c-0.192 0.104-0.419 0.17-0.661 0.181l-0.004 0h-0.845c-0.166-0.072-0.307-0.174-0.422-0.301l-0.001-0.001-0.242-0.302-0.121-0.483c0-0.181 0-0.302 0.121-0.483 0-0.121 0.121-0.241 0.242-0.362l0.423-0.241c0.127-0.033 0.273-0.052 0.423-0.052s0.296 0.019 0.435 0.054l-0.012-0.003c0.157 0.019 0.3 0.062 0.431 0.124l-0.008-0.004 0.181 0.121-0.060 0.121h-0.242l-0.181-0.181c-0.064-0.011-0.137-0.018-0.211-0.018s-0.148 0.006-0.219 0.019l0.008-0.001c-0.064-0.012-0.137-0.019-0.211-0.019s-0.148 0.007-0.219 0.020l0.007-0.001-0.302 0.181-0.181 0.302v0.725c0 0.121 0.121 0.241 0.242 0.302 0.161 0.15 0.378 0.243 0.617 0.243 0.017 0 0.033-0 0.049-0.001l-0.002 0zM41.479 21.072h1.147v0.241h-1.449v-2.234h0.302v2.053zM43.774 21.313h-0.302v-2.234h0.362v2.234zM45.102 19.079v0.060l1.57 1.691v-1.751h0.302v2.234h-0.302l-1.509-1.751v1.751h-0.302v-2.234h0.181zM49.509 19.079v0.241h-1.208v0.725h0.966v0.241h-0.966v0.845h1.208v0.241h-1.57v-2.234h1.57zM12.8 5.253l15.577 3.864v13.343l-15.577-3.743v-13.464zM11.774 4.226v15.094l17.57 4.347v-15.215l-17.509-4.287z">
        </path>
        <path d="M21.192 30.672l-17.57-4.347v-15.094l17.57 4.226v15.215z"></path>
        <path
            d="M12.075 5.132l15.336 3.743-6.521 5.675-15.336-3.804 6.521-5.615zM11.774 4.166l-8.151 7.004 17.57 4.347 8.151-7.064-17.509-4.287zM22.159 29.826l7.245-6.219-7.245-1.751v7.97z">
        </path>
    </symbol>
</svg>