<!-- Generated by IcoMoon.io -->
<svg width="0" height="0" class="hidden">
    <symbol version="1.1" xmlns="http://www.w3.org/2000/svg" viewBox="0 0 64 42" id="Logo-4">
        <title>Logo-4</title>
        <path
            d="M14.551 12.8c-1.449 0-2.596 1.026-2.596 2.294 0 1.328 1.208 2.415 2.596 2.415 1.449 0 2.657-1.087 2.657-2.415 0-1.208-1.208-2.294-2.657-2.294zM33.932 12.075c0-1.811-0.785-3.502-2.234-4.83-1.389-1.208-3.321-1.932-5.374-1.932-1.992 0-3.925 0.725-5.374 1.992-1.389 1.208-2.174 2.958-2.174 4.77v9.842s15.034-1.509 15.034-9.841zM6.641 25.117c0 1.268 0.604 2.415 1.57 3.321 0.981 0.855 2.27 1.379 3.681 1.389h0.002c1.449 0 2.777-0.483 3.743-1.389 0.944-0.808 1.545-1.991 1.57-3.317l0-0.004v-6.823s-10.566 1.026-10.566 6.823zM11.894 26.325c-0.242 0-0.543 0-0.725-0.181-0.242-0.121-0.423-0.302-0.543-0.543-0.060-0.241-0.121-0.483-0.060-0.725 0-0.241 0.181-0.423 0.362-0.604s0.483-0.302 0.725-0.362c0.242 0 0.543 0 0.785 0.121 0.242 0.060 0.483 0.241 0.604 0.423 0.159 0.195 0.255 0.447 0.255 0.721 0 0.336-0.144 0.638-0.375 0.848l-0.001 0.001-0.483 0.241-0.543 0.121zM21.555 24.151v2.596h-0.423v-2.596h0.483zM22.581 25.298v0.362h-1.208v-0.302h1.208zM22.702 24.151v0.423h-1.268v-0.423h1.268zM25.117 25.358v0.664l-0.302 0.423-0.302 0.241-0.483 0.121-0.423-0.121c-0.121 0-0.241-0.121-0.362-0.241-0.105-0.118-0.187-0.259-0.239-0.414l-0.002-0.009v-1.208l0.241-0.362 0.362-0.241 0.423-0.060 0.483 0.060 0.302 0.241 0.241 0.423 0.060 0.543zM24.634 25.54v-0.181l-0.060-0.362-0.121-0.302c-0.089-0.112-0.226-0.183-0.379-0.183-0.015 0-0.031 0.001-0.046 0.002l0.002-0h-0.241l-0.181 0.181-0.060 0.302-0.060 0.362v0.483l0.121 0.241 0.181 0.181h0.483l0.181-0.181 0.121-0.241v-0.362zM26.868 26.083v-0.121l-0.241-0.241-0.241-0.060-0.362-0.121-0.241-0.181-0.241-0.241c-0.008-0.036-0.012-0.078-0.012-0.121s0.004-0.084 0.013-0.125l-0.001 0.004v-0.302l0.241-0.241 0.302-0.121c0.126-0.042 0.272-0.066 0.423-0.066s0.296 0.024 0.432 0.069l-0.010-0.003 0.362 0.302 0.121 0.423h-0.543v-0.181l-0.181-0.181h-0.241c-0.036-0.008-0.078-0.012-0.121-0.012s-0.084 0.004-0.125 0.013l0.004-0.001-0.121 0.121v0.302l0.060 0.060 0.181 0.121h0.241l0.362 0.181 0.241 0.181c0.148 0.123 0.242 0.307 0.242 0.513 0 0.011-0 0.021-0.001 0.032l0-0.002-0.060 0.302-0.181 0.181-0.302 0.181c-0.097 0.023-0.209 0.036-0.323 0.036-0.283 0-0.547-0.081-0.77-0.221l0.006 0.004-0.241-0.241-0.121-0.362h0.543v0.181l0.121 0.121 0.181 0.060h0.423c0.098-0.043 0.168-0.133 0.181-0.24l0-0.001zM28.921 24.151v2.596h-0.543v-2.596h0.543zM29.706 24.151v0.423h-2.113v-0.423h2.113zM31.759 26.325v0.423h-1.389v-0.423h1.389zM30.551 24.151v2.596h-0.543v-2.596h0.543zM31.577 25.238v0.362h-1.208v-0.362h1.208zM31.759 24.151v0.423h-1.389v-0.423h1.389zM32.060 24.151h0.966c0.181 0 0.362 0 0.483 0.121 0.121 0 0.242 0.121 0.362 0.241l0.060 0.423v0.362l-0.242 0.241-0.302 0.181-0.181 0.060h-0.845v-0.423h0.906l0.121-0.181v-0.423l-0.121-0.121h-0.664v2.113h-0.604v-2.596zM33.509 26.747l-0.604-1.208h0.604l0.543 1.208h-0.604zM36.287 25.841h-0.664v-0.483h0.906c0-0.121 0.121-0.121 0.121-0.181v-0.423l-0.121-0.181c-0.036-0.010-0.078-0.015-0.121-0.015s-0.085 0.006-0.124 0.016l0.003-0.001h-0.483v2.113h-0.543v-2.536h1.026c0.181 0 0.362 0 0.483 0.121 0.286 0.121 0.483 0.4 0.483 0.725v0c0 0.181 0 0.302-0.121 0.423-0.060 0.121-0.181 0.241-0.362 0.302-0.141 0.070-0.306 0.114-0.481 0.121l-0.002 0zM39.306 26.325v0.423h-1.268v-0.423h1.208zM38.098 24.151v2.596h-0.483v-2.596h0.543zM39.125 25.238v0.362h-1.208v-0.362h1.208zM39.306 24.151v0.423h-1.268v-0.423h1.208zM40.815 24.151v2.596h-0.543v-2.596h0.604zM41.6 24.151v0.423h-2.053v-0.423h2.053zM43.653 26.325v0.423h-1.389v-0.423h1.389zM42.445 24.151v2.596h-0.543v-2.596h0.604zM43.472 25.238v0.362h-1.208v-0.362h1.208zM43.653 24.151v0.423h-1.389v-0.423h1.389zM43.955 24.151h0.966c0.181 0 0.362 0 0.483 0.121 0.181 0 0.302 0.121 0.362 0.241l0.121 0.423-0.060 0.362-0.242 0.241-0.302 0.181-0.121 0.060h-0.845v-0.423h0.845l0.121-0.181 0.060-0.181v-0.241l-0.181-0.121h-0.664v2.113h-0.543v-2.596zM45.404 26.747l-0.604-1.208h0.604l0.604 1.208h-0.604zM47.638 26.083v-0.121l-0.242-0.241-0.302-0.060-0.302-0.121-0.302-0.181-0.181-0.241c-0.008-0.036-0.012-0.078-0.012-0.121s0.004-0.084 0.013-0.125l-0.001 0.004v-0.302l0.242-0.241 0.242-0.121c0.135-0.048 0.291-0.076 0.453-0.076s0.318 0.028 0.463 0.079l-0.010-0.003 0.362 0.302 0.060 0.423h-0.423l-0.060-0.181-0.121-0.181h-0.242c-0.036-0.008-0.078-0.012-0.121-0.012s-0.084 0.004-0.125 0.013l0.004-0.001-0.121 0.121-0.060 0.181v0.121l0.121 0.060 0.181 0.121h0.181l0.362 0.181 0.302 0.181c0.148 0.123 0.242 0.307 0.242 0.513 0 0.011-0 0.021-0.001 0.032l0-0.002c0 0.121 0 0.181-0.121 0.302l-0.181 0.181-0.302 0.181c-0.11 0.030-0.236 0.047-0.367 0.047-0.29 0-0.56-0.085-0.786-0.232l0.006 0.003-0.242-0.241-0.060-0.362h0.543v0.181l0.121 0.121 0.181 0.060h0.423c0.098-0.043 0.168-0.133 0.181-0.24l0-0.001z">
        </path>
    </symbol>
</svg>